<?xml version="1.0" encoding="utf-8"?>
<!-- Generator: Adobe Illustrator 18.0.0, SVG Export Plug-In . SVG Version: 6.00 Build 0)  -->
<!DOCTYPE svg PUBLIC "-//W3C//DTD SVG 1.1//EN" "http://www.w3.org/Graphics/SVG/1.1/DTD/svg11.dtd">
<svg version="1.1" id="Layer_1" xmlns="http://www.w3.org/2000/svg" xmlns:xlink="http://www.w3.org/1999/xlink" x="0px" y="0px"
	 viewBox="0 0 100 100" enable-background="new 0 0 100 100" xml:space="preserve">
<g>
	<path fill="#FFFFFF" d="M1.1,42.1c1,0.1,2,0.2,3.1,0.3c0.1-3.8,1.9-7.3,1.8-11.3c-0.2-5.6,1.3-11,3.5-16.2c0.2-0.5,0.6-0.9,1.2-1.2
		c-2.1,5.7-2.9,11.5-2.2,17.7c1.6-1,3-1.8,4.4-2.8c0.3-0.2,0.5-0.9,0.5-1.4c0.4-3,1.4-5.7,4-7.7c0.4-0.3,0.6-1.1,0.5-1.7
		C17.1,9.5,21.2,5.5,29.4,7.1c2.1,0.4,4.1,1.5,6.1,2.3c0.3,0.1,0.5,0.5,0.6,1.2c-0.6-0.2-1.1-0.5-1.7-0.6c-1.9-0.6-3.7-1.3-5.6-1.6
		c-4.8-0.7-9,4.4-7.5,9.1c0.2,0.6,1.5,0.9,2.3,1c0.3,0.1,1-0.6,1.2-1.1c0.4-1,0.4-2.1,0.7-3.1c1.3-4.3,4.9-5.7,8.7-3.3
		c1.1,0.7,2.3,1.6,3.2,2.5c0.9,0.9,1.7,0.8,2.9,0.5c2.4-0.8,4.8-1.5,7.3-1.8c1.2-0.2,2.4,0.6,3.9,1.1c1.3-0.9,3-1.9,4.3-3.3
		c0.6-0.7,0.3-2.2,0.5-4C54.3,6.6,52.6,7,51,7.7c-3.4,1.5-6.7,3.2-10.2,4.6c-1,0.4-2.2,0-3.4-0.1l-0.1-0.8c0.8-0.3,1.5-0.7,2.3-1
		c3-1.4,6-2.8,9-4.2C49.8,5.8,50.9,5.4,52,5c2.3-0.7,5.1-0.4,5.5-3.8c0.4,0.3,0.5,0.3,0.5,0.4c-0.3,2.4-0.3,2.3,2.1,2.9
		c1.4,0.3,2.7,0.9,4,1.3c0.5,0.2,1,0.4,1.5,0.3C72.2,5.6,78.3,7,84.3,9.1c0.9,0.3,1.7,0.9,2.4,1.7c-5.9-1.9-11.7-2.8-17.9-2.2
		c0.9,1.6,1.7,3,2.6,4.3c0.2,0.4,0.9,0.6,1.3,0.6c3,0.4,5.7,1.4,7.7,3.9c0.3,0.4,1,0.5,1.5,0.5c1.1,0.1,2.3-0.1,3.4,0
		c5.2,0.4,8.3,4.2,7.9,9.4c-0.3,3.4-1.4,6.4-3.8,9c0.1-0.4,0.2-0.9,0.3-1.3c0.6-2,1.6-4,1.9-6.1c0.7-4.8-4.5-9.1-9.1-7.5
		c-0.5,0.2-0.8,1.5-1,2.3c-0.1,0.3,0.6,0.9,1,1.1c1.4,0.5,2.9,0.6,4.3,1.2c3.3,1.4,4.4,4.6,2.6,7.6c-0.9,1.5-2.1,2.7-3,4.2
		c-0.4,0.6-0.5,1.5-0.4,2.2c0.5,1.9,1.5,3.7,1.7,5.6c0.2,1.5-0.3,3.2-0.5,4.8c0,0.5,0,1.1,0.2,1.5c0.6,0.9,1.6,1.7,2.1,2.7
		c1,2,2.5,2.1,4.7,1.3c-0.5-1.5-0.9-3-1.6-4.4c-1.4-3.2-3-6.3-4.5-9.5c-0.6-1.4-1.1-2.9,0.4-4.4c0.2,0.2,0.5,0.4,0.6,0.6
		c1.8,3.9,3.5,7.8,5.3,11.7c0.4,0.9,0.8,1.8,0.9,2.7c0.4,2.3,0.8,4.4,3.6,5c0.1,0,0.2,0.3,0.2,0.4c-0.1,0.1-0.1,0.2-0.1,0.2
		c-2.8,0-2.5,0.1-3.4,2.9c-0.8,2.8-1,5.6-1.1,8.5c-0.2,5.3-1.2,10.5-3.3,15.4c-0.3,0.7-0.7,1.3-1.4,1.8c1.9-5.8,2.8-11.8,2.1-17.9
		c-1.8,1-3.4,1.8-5,2.8c-0.4,0.3-0.5,1-0.6,1.6c-0.4,2.9-1.5,5.5-3.9,7.3c-0.4,0.3-0.5,1-0.6,1.5c0,0.7,0.2,1.4,0.2,2.1
		c0.3,5.6-3.8,9.7-9.3,9c-2.6-0.3-5.1-1.3-7.6-2.1c-0.6-0.2-1.1-0.7-1.7-1.1c0.1-0.1,0.1-0.3,0.2-0.4c0.6,0.2,1.3,0.4,1.9,0.6
		c1.4,0.5,2.8,1.1,4.2,1.5c4.8,1.3,9.7-2.6,8.9-8.9c-0.2-1.4-1.4-1.2-2.2-1.2c-0.4,0-1.1,0.7-1.2,1.2c-0.5,1.3-0.6,2.7-1.1,3.9
		c-1.3,3.3-4.6,4.5-7.7,2.7c-1.5-0.9-2.7-2.1-4.1-3c-0.6-0.4-1.5-0.5-2.2-0.4c-2.1,0.5-4.1,1.4-6.3,1.9c-0.9,0.2-2,0.3-2.8-0.1
		c-1.6-0.9-2.6-0.3-3.7,0.8c-0.4,0.5-1,0.9-1.6,1.1c-2,0.9-1.7,2.3-1,4.3c2.4-1.1,4.7-2.1,7-3.1c2.5-1.1,4.9-2.4,7.5-3.3
		c0.9-0.3,2.1,0.1,3.2,0.3c0.1,0.3,0.2,0.5,0.3,0.8c-0.3,0.1-0.6,0.1-0.9,0.2c-5.6,2.1-10.7,5.7-16.8,6.8c-0.4,0.1-0.8,0.7-1.1,1.2
		c-0.4,0.7-0.8,1.5-1.4,2.1c0-1,0.3-2.3-0.2-2.9c-0.5-0.6-2-0.2-2.9-0.6c-5.2-1.9-10.9-0.3-16.1-2c-2.5-0.8-5-1.4-7.5-2.2
		c-0.8-0.2-1.5-0.8-2.1-1.5c5.8,2,11.7,2.8,17.8,2.2c-1.1-1.7-2-3.4-3.1-4.9c-0.3-0.4-1-0.5-1.6-0.6c-2.9-0.4-5.5-1.4-7.3-3.9
		c-0.3-0.4-1.1-0.7-1.6-0.6C10.2,83.3,5.1,78.1,6.9,70c0.5-2.4,1.9-5.3,3.5-6.5c-0.2,0.5-0.3,1-0.5,1.5c-0.6,1.9-1.3,3.8-1.7,5.8
		c-0.8,4.4,3.2,8.7,9.1,7.7c0.5-0.1,0.9-1.4,1-2.3c0.1-0.3-0.6-1-1.1-1.2c-1.3-0.5-2.8-0.6-4.1-1.1c-3.2-1.3-4.4-4.4-2.8-7.4
		c0.9-1.6,2.2-2.9,3.2-4.5c0.3-0.5,0.5-1.4,0.3-2c-0.5-1.8-1.5-3.4-1.7-5.2c-0.2-1.7,0.2-3.5,0.4-5.2c0-0.3,0.4-0.7,0.3-0.8
		c-1-1.6-1.9-3.3-3.3-4.6c-0.5-0.5-2-0.2-3.4-0.2c0.6,1.8,1.1,3.3,1.7,4.7c1.4,3.2,3,6.3,4.5,9.5c0.6,1.4,0.9,2.8-0.4,4.2
		c-0.2-0.2-0.5-0.4-0.6-0.6C9.6,57.9,7.8,54,6.1,50.1c-0.5-1.2-1-2.6-1.2-3.9c-0.3-1.6-0.9-2.8-2.6-3.1c-0.4-0.1-0.8-0.4-1.3-0.7
		C1.1,42.3,1.1,42.2,1.1,42.1 M15.5,64.2c-1.7,2-2.8,3.9-2.6,6.3c0.1,0.7,0.5,1.6,1.1,2.1c1.4,1.2,5.2,0.6,6.4-0.7
		c0.1-0.1,0.2,0,0.4-0.1c0,0.5,0,1,0,1.5c1.8,0,3.6,0,5.3,0c1.7,0,3.3,0,5,0.1l0.1-0.5c-0.5-0.3-1.1-0.6-1.6-0.9
		c-1.8-0.7-3.6-1.3-5.3-2c-0.6-0.2-1.3-1-1.2-1.5c0.1-0.9,0.5-2.1,1.9-1.9c3,0.3,5.6-0.7,8.2-2c0.5-0.2,1-0.4,1.6-0.6
		c0,3.2,1.5,4.8,3.8,3.9c0.9-0.4,1.6-1.3,2.4-2c0.5-0.5,1-1.1,1.7-1.8c-0.1,3.5,0.9,4.4,3.3,3.3c-0.4-2.8-0.3-2.9,0.9-3.9
		c1.2,2,0.8,5.5-0.9,6.8c-1.5,1.2-2.7,0.9-4.8-1c-1.8,0.7-3.3,1.7-4.9,1.8c-2.2,0.1-2.9-1.9-3.3-3.9c-0.9,0.5-1.6,0.8-2.9,1.5
		c3,0.5,3.7,2.2,3.6,4.4c3.6,1.1,7.6-0.5,11,1.3c0,0.2,0,0.5,0.1,0.7c-2.2,0.6-4.4,1.2-7,1.9c0.4-0.9,0.5-1.2,0.9-2
		c-2.5,0.4-4.7,0.3-6.7,1c-2.7,1-5.3,2.6-7.9,4c-0.5,0.2-1,0.5-1.4,0.8c0,0.2,0,0.4,0,0.6c1.6,0.6,3.2,1.2,4.8,1.8
		c0.2-1,0.3-1.6,0.5-2.6c0.4,0.8,0.5,1.2,0.9,1.5c0.5,0.4,1.1,1.1,1.5,1c4.7-0.6,9.4-1.4,14-2.1c1.2-0.2,1.5-0.9,1.6-2.1
		c0.1-1.7,0.4-3.5,1-5.1c0.3-0.7,1.5-1.6,2.2-1.5c0.7,0.1,1.6,1.1,1.9,1.9c1,2.7,0.5,5.2-1.6,7.4c-0.3,0.3-0.3,0.9-0.5,1.3
		c0.5-0.2,1.1-0.2,1.4-0.5c1.5-2.1,3-4.3,4.4-6.4c0.4-0.6,0.7-1.2,1.1-1.8l0.7,0.4c-1.7,3.3-3.5,6.6-5.2,9.9c2.6,0.7,5,0.5,7.3-0.9
		c-1.2-1.8-1.2-1.8-5.1-2.3c0.9-1,1.5-2.3,2.5-2.6c3.8-1.2,7.6-1,11.2,0.9c0.6,0.3,1.5,1.3,1.4,1.5c-0.4,0.9-1.1,1.8-1.9,2.3
		c-0.7,0.5-1.7,0.6-2.8,1c1.9,1.6,3.7,2.7,5.9,2.7c1.8,0,2.8-0.8,2.9-2.6c0.2-1.9,1.1-4-1.3-5.5c0.5,0,0.9,0,1.6,0c0-3.6,0-7,0-10.4
		l-0.5-0.1c-0.4,0.7-0.8,1.4-1.1,2.2c-0.6,1.5-1,3-1.7,4.5c-0.3,0.7-1.1,1.7-1.5,1.6c-1.2-0.1-2-0.8-2-2.4c-0.1-2.1-0.7-4.1-1.2-6.2
		c-0.3-1.1-0.9-2-1.4-3.2c0.6,0,0.8-0.1,1.1,0c2,0.2,3.6-1.3,3-3.2c-0.3-1.1-1.3-2-2.1-2.9c-0.5-0.6-1.1-1-1.4-1.4
		c1.1-0.3,2.3-0.4,2.9-1c0.5-0.6,0.4-1.7,0.5-2.5c-1.8-0.2-3.1-0.3-4.7-0.5c2.1-1.7,5.4-1.5,7,0.3c0.5,0.5,1,1.5,0.8,2.1
		c-0.4,1.2-1.2,2.3-1.6,3.1c0.6,1.6,1.7,3.2,1.8,4.8c0.1,2.1-1.8,2.9-3.9,3.2c0.5,0.9,0.9,1.7,1.5,2.9c0.5-2.5,1.7-3.5,3.7-3.6
		c0.3,0,0.9-0.7,0.9-1.2c0.1-2.3,0-4.6,0.2-6.9c0.1-1,0.6-2,0.9-3c0.2,0,0.5,0,0.7,0.1c0.6,2.2,1.2,4.3,1.9,6.7
		c-0.8-0.2-1.1-0.2-1.7-0.3c0,2.8-0.4,5.4,1.5,7.9c1.4,1.9,2.1,4.2,3.2,6.3c0.2,0.5,0.5,1,0.7,1.5c0.2,0,0.4,0,0.6,0
		c0.6-1.6,1.2-3.3,1.8-5c-0.9-0.2-1.4-0.3-1.9-0.4c2.4-0.8,2.1-2.7,1.8-4.4c-0.6-4-1.3-7.9-2-11.9c-0.2-1.4-0.9-1.8-2.4-1.8
		c-1.7,0-3.5-0.5-5.1-1.1c-0.7-0.2-1.5-1.3-1.4-2c0.1-0.7,0.9-1.7,1.7-2c2.6-1,5.1-0.8,7.3,1.1c0.4,0.4,0.9,0.7,1.3,1.1
		c0.1-0.2,0.2-0.3,0.4-0.5c-2.3-2.8-5.7-4.3-8.7-6.2c0.1-0.2,0.3-0.5,0.4-0.7c3.2,1.7,6.5,3.4,9.9,5.2c0.9-2.7,0.5-5.3-0.8-7.9
		c-2,1-2.3,2.7-2.4,4.8c-1-0.7-2.2-1.4-2.6-2.4c-1.2-3.6-1-7.3,0.8-10.7c0.4-0.7,1.2-1.8,1.7-1.7c1.1,0.1,2.2,0.7,2.5,2.2
		c0.1,0.8,0.5,1.5,0.9,2.3c2.6-2.5,3.5-6.2,2-7.8c-0.5-0.5-1.3-0.9-2-0.9c-1.8,0-4-0.9-5.3,1.4c0-0.5,0.1-1,0.2-1.6
		c-3.6,0-7,0-10.5-0.1c0,0.2-0.1,0.3-0.1,0.5c0.6,0.3,1.3,0.7,1.9,1c1.7,0.6,3.4,1.1,5,1.9c0.5,0.2,1.3,1.2,1.2,1.5
		c-0.4,0.7-1.2,1.8-1.8,1.8c-3.2-0.1-6.1,0.9-8.8,2.3c-0.3,0.1-0.6,0.1-1.1,0.2c0.1-1.7,0.1-3.3-1.9-3.8c-1.5-0.4-2.8,0.1-3.8,1.4
		c-0.6,0.8-1.3,1.6-2.2,2.6c0-3.7-0.9-4.5-3.3-3.4c0.3,2.7,0.3,2.9-0.9,3.9c-1.2-2.1-0.7-5.5,1-6.8c1.5-1.2,2.8-0.9,5.1,1.4
		c4.4-3.4,6.5-3,7.9,1.8c0.8-0.4,1.5-0.8,1.9-1c-0.9-1.4-2-2.5-2.5-3.8c-0.3-1-0.6-1.4-1.6-1.4c-2.2,0-4.5,0.1-6.7-0.1
		c-1-0.1-1.9-0.6-2.9-0.9c0-0.2,0-0.4,0-0.7c2.2-0.6,4.5-1.3,6.7-1.9c0.1,0.2,0.1,0.3,0.2,0.5c-0.3,0.3-0.5,0.7-0.9,1.1
		c3.1,0.1,6.1,0.4,8.7-1.8c1.1-0.9,2.6-1.4,3.9-2.1c1.2-0.5,2.3-1,3.5-1.5c0-0.2,0-0.3,0-0.5c-1.6-0.6-3.1-1.3-4.9-2
		c-0.2,1-0.3,1.6-0.5,2.2c-0.9-2.9-3.1-2.2-5-1.9c-3.8,0.6-7.6,1.3-11.4,2c-1.3,0.2-1.7,1-1.5,2.3c0.3,2.1-0.2,4-1.5,5.7
		c-1.1,1.4-2.7,1.3-3.4-0.2c-1.2-2.4-1.2-4.8,0.3-7.1c0.2-0.3,0.4-0.7,0.6-1c-0.2-0.1-0.3-0.2-0.5-0.3c-1.7,2.7-3.5,5.3-5.2,8
		c0.7-3.9,2.8-7.1,5-10.4c-3.1-1.1-5.7-1-8.4,0.6c1,2.1,2.8,2.2,4.8,2.4c-0.7,1-1.3,2.3-2.3,2.5c-4,1.2-8,0.9-11.7-1.3
		c-1-0.6-1.3-1.2-0.5-2.1c0.6-0.6,1.3-1.1,2-1.6c0.7-0.4,1.5-0.5,2.3-0.9c-3.1-2.7-6.5-3.5-8.1-1.9c-1.4,1.4-1.1,5.1,0.7,7.3
		c-0.6,0-1,0-1.7,0c0,3.5,0,6.8-0.1,10.2c0.2,0,0.5,0.1,0.7,0.1c0.9-2.4,1.8-4.7,2.6-7.1c0.3-1,0.8-1.2,1.7-0.9
		c1.3,0.4,1.7,1.1,1.8,2.5c0.2,2,0.7,4,1.2,6c0.3,1.1,0.9,2.1,1.3,3.2c-3.4,0.1-4.9,1.4-3.9,3.7c0.4,1,1.4,1.7,2.1,2.5
		c0.5,0.5,0.9,1,1.4,1.5c-0.7,0.2-1.2-0.1-1.6,0c-0.6,0.2-1.3,0.5-1.5,1c-0.3,0.6-0.2,1.5-0.1,2.2c0,0.1,0.9,0.1,1.4,0.2
		c0.9,0.2,1.9,0.3,2.8,0.5c-2,1.7-5.5,1.3-6.8-0.4c-0.4-0.5-0.8-1.4-0.6-1.9c0.4-1.2,1.1-2.3,1.7-3.5c-3.6-3.1-2.5-6.8,1.9-7.6
		c-0.4-0.8-0.8-1.5-1.4-2.8c-0.6,2.9-2.3,3.7-4.6,3.6c-0.1,2.1-0.2,4-0.3,5.9c-0.1,1.7,0.8,3.7-1.4,5.3c-0.7-2.4-1.3-4.6-2-7.2
		c0.9,0.4,1.2,0.5,1.6,0.7c0.1-2.8,0.4-5.4-1.4-7.9c-1.5-2-2.3-4.5-3.4-6.8c-0.2-0.4-0.4-0.8-0.6-1.2c-0.2,0-0.4,0-0.5,0
		c-0.5,1.6-1.1,3.3-1.7,5c1.1,0.2,1.8,0.3,2.7,0.4c-1.5,0.9-3.2,1.1-2.9,3.1c0.8,4.5,1.6,9,2.3,13.5c0.2,1.1,0.7,1.4,1.9,1.3
		c2.1-0.2,4.2,0,5.9,1.4c1.6,1.2,1.5,2.8-0.3,3.6c-2.6,1.1-5.1,1.1-7.4-0.7c-0.6-0.4-1.1-0.9-1.6-1.3c-0.1,0.2-0.2,0.3-0.4,0.5
		c2.5,3,6,4.7,9.1,6.9c-3.9-1-7.3-3-10.7-5.4c-0.9,3-0.7,5.6,0.8,8c1.9-1.1,2.3-2.7,2.2-4.7c1.7,0.5,2.6,1.3,3,2.9
		c0.8,3.5,0.6,6.9-1,10c-0.4,0.7-1.4,1.8-1.7,1.7c-0.9-0.4-1.8-1.2-2.4-2C15.9,66.2,15.8,65.3,15.5,64.2 M40.4,85.7
		c1,0.8,2.1,2,2.9,2c1.1-0.1,2.3-1.2,3.2-2.1c0.4-0.5,0.3-1.5,0.4-2.2c-5.6,1.3-10.7,2.4-16.1,3.6c0.7,1,1.3,2.2,2.2,3.2
		c0.4,0.5,1.3,1.1,1.9,1c1.8-0.3,3.6-1,5.6-1.5C39.5,88.1,38.6,86.8,40.4,85.7 M83.4,53.1c1.2,5.4,2.4,10.5,3.6,15.9
		c1.1-0.7,2.3-1.4,3.3-2.1c0.4-0.3,1-1,0.9-1.4c-0.4-1.9-1-3.7-1.6-5.7c-1.6,1.3-2.8,1.8-3.8-0.2c0.7-0.7,1.5-1.4,2.3-2.2
		c-0.9-1.3-1.8-2.5-2.6-3.8C84.9,52.5,84.2,52.4,83.4,53.1 M14.5,40.3c-0.5-3.4-1-6.2-1.4-9.3c-0.8,0.5-1.5,0.7-2,1.2
		c-0.8,0.7-2,1.7-1.9,2.5c0.1,1.9,0.9,3.8,1.4,5.8C12,39.7,12.9,38.4,14.5,40.3 M60.9,14.3c2.3-0.3,5-0.7,8-1.2
		c-0.7-1.1-1.2-2.1-1.9-3c-0.4-0.5-1.1-1.1-1.5-1c-1.9,0.4-3.7,1-5.2,1.4C60.6,12.1,60.8,13.2,60.9,14.3 M23.9,28.3
		c0.2-0.1,0.4-0.1,0.5-0.2c0-2.4,0.1-4.8,0.1-7.2c0-1.2-0.8-1.3-1.6-1c-0.5,0.2-1.3,0.9-1.2,1.2C22.4,23.5,23.2,25.9,23.9,28.3
		 M71.7,23.9c0,0.2,0.1,0.4,0.1,0.6c2.2,0,4.5,0.1,6.7,0.1c1.2,0,1.4-0.6,1.4-1.6c0-1-0.6-1.4-1.5-1.2
		C76.2,22.5,73.9,23.2,71.7,23.9 M28,75.8c0-0.1-0.1-0.3-0.1-0.4c-2.3-0.1-4.7-0.2-7-0.1c-0.4,0-1.2,0.9-1.1,1.3
		c0.1,0.6,0.9,1.5,1.2,1.4C23.4,77.3,25.7,76.5,28,75.8 M75.9,72.2c-0.2,0.1-0.4,0.1-0.6,0.2c-0.1,2.2-0.2,4.3-0.2,6.5
		c0,0.4,0.9,1.1,1.4,1c0.5,0,1.4-0.8,1.3-1.1C77.3,76.6,76.6,74.4,75.9,72.2 M14.7,40.7c-0.7,0.6-1.4,0.9-1.9,1.5
		c-0.3,0.3-0.5,1-0.3,1.3c0.6,1.1,1.4,2.2,2.2,3.2c0.2,0.2,0.9,0.3,1.2,0.2c0.3-0.1,0.5-0.8,0.4-1.1C15.9,44.1,15.3,42.5,14.7,40.7
		 M59.2,14.8c0.1-0.2,0.1-0.4,0.2-0.7c-0.8-0.6-1.9-1.8-2.4-1.6c-1.4,0.5-2.6,1.6-3.8,2.6c-0.2,0.2-0.3,0.8-0.2,1
		c0.1,0.2,0.7,0.4,1,0.3C55.8,15.9,57.5,15.3,59.2,14.8 M52,20.2c-0.5,0.1-0.7,0.2-0.9,0.3c-1.2,0.5-1.9,1.3-1.1,2.6
		c0.4,0.6,1.2,1.5,1.6,1.4c1.4-0.4,1.2-1.7,0.9-2.8C52.4,21.2,52.2,20.8,52,20.2 M47.6,79.8c0.7-0.4,1.3-0.6,1.7-0.8
		c1.1-0.7,0.7-1.7,0.3-2.5c-0.3-0.5-1-0.8-1.5-1.1c-0.3,0.7-0.8,1.5-0.9,2.2C47.1,78.2,47.4,78.9,47.6,79.8 M76.7,53
		c1.1-0.5,1.9-0.9,2.7-1.4c-0.5-0.7-1.1-1.9-1.4-1.9c-1,0.2-1.8,0.9-2.7,1.5C75.7,51.8,76.1,52.3,76.7,53 M20.2,47.9
		c0.5,1.3,0.7,2.8,2.6,2c0.9-0.3,1.9-0.7,1.5-1.9C23.9,46.9,22.4,46.9,20.2,47.9 M58.5,8.4c1.4-0.6,2.6-1.1,3.8-1.6
		c0-0.1-0.1-0.3-0.1-0.4c-1.4-0.1-2.9-0.3-4.6-0.5C58,6.8,58.2,7.5,58.5,8.4 M94.3,57.8c-2.6,0-2.7,0.7-0.5,4.6
		C94,60.7,94.1,59.3,94.3,57.8 M6.5,38.1c-0.2,1.6-0.3,3-0.4,4.3C8.7,42.4,8.6,41.6,6.5,38.1 M38.3,93.4c0,0.2,0,0.3,0.1,0.5
		c1.3,0.1,2.7,0.1,4.3,0.2c-0.4-1-0.6-1.5-0.8-2.2C40.5,92.5,39.4,92.9,38.3,93.4 M19.1,61c-2.2,1-1.5,2.1-0.6,3.2
		C18.7,63.2,18.9,62.3,19.1,61 M38.5,18.9c-0.8-1.6-1.2-1.7-2.9-0.3C36.6,18.7,37.5,18.8,38.5,18.9 M80.5,38.8
		c1.9-1.2,2-1.7,0.6-3.2C80.9,36.7,80.8,37.5,80.5,38.8 M64,81.2c-0.9-0.1-1.8-0.2-2.9-0.3C61.8,82.6,62.8,82.3,64,81.2"/>
	<path fill="#FFFFFF" d="M18.2,89.2c-0.6-0.7-1.1-1.3-1.7-2c-0.8,0.5-1.6,0.9-2.4,1.5c-0.4-1.1-2.4-1.5-1.1-3
		c1.3-1.6,1.7-1.4,3.7,0.7c0.7-0.4,1.5-0.9,2.2-1.3C21.2,87,21.1,87.6,18.2,89.2"/>
	<path fill="#FFFFFF" d="M84.3,85.4c0.6-0.5,1.1-0.8,1.5-1.3c0.2-0.3,0.4-0.9,0.3-1.2c-0.9-2.3-0.9-2.3,1.4-3.5
		c0.5,0.5,1,1.1,1.4,1.7c0.2,0.3,0.2,1,0.1,1.1c-1.9,1.1-1.5,2.3-0.1,3.7c-0.8,0.7-1.5,1.3-2.5,2.2C85.6,87.1,85,86.3,84.3,85.4"/>
	<path fill="#FFFFFF" d="M15.4,18.6c-2.1,2.1-2.4,2.1-3.7,0.5c-0.6-0.8-0.7-1.3,0.2-1.9c1-0.6,1.1-1.3,0.4-2.3
		C11,13,13.3,13,13.8,12.1c2.4,1.7,2.4,2,0.2,4.3C14.5,17.1,14.9,17.8,15.4,18.6"/>
	<path fill="#FFFFFF" d="M82.1,11.2c0.6,0.7,1.2,1.4,1.8,2c2.7-1.5,2.7-1.5,4,0.9c-1.6,2.2-1.9,2.3-4.2,0.1
		c-0.7,0.4-1.4,0.9-2.1,1.3C79.1,13.3,79.2,13,82.1,11.2"/>
	<path fill="#FFFFFF" d="M89.9,37.1c0.6,0.1,1.2,0.1,1.8,0.2c0,0.4-0.1,1-0.1,1c-0.6,0-1.2-0.1-1.8-0.1
		C89.8,37.8,89.9,37.4,89.9,37.1"/>
	<path fill="#FFFFFF" d="M36.7,8.8C37.3,8.4,37.8,7.9,38,8c0.4,0.2,0.7,0.7,0.7,1.2c0,0.2-0.7,0.7-1,0.7C37.4,9.8,37.1,9.2,36.7,8.8
		"/>
	<path fill="#FFFFFF" d="M11,62.1c-0.8,0.3-1.3,0.7-1.7,0.6c-0.4-0.1-0.7-0.6-1.1-0.9c0.3-0.3,0.6-0.9,0.9-0.9
		C9.6,60.9,10,61.4,11,62.1"/>
	<path fill="#FFFFFF" d="M38.1,25.9c0.2-1.1,0.7-2.6,2.2-2.3c1.5,0.3,1.1,1.9,0.9,3c-0.3,1.2-0.7,2.4-1.3,3.5c-1.7,3.1-1.9,6,0.2,9
		c0.6,0.9,0.6,1.6-0.6,2.2C37.7,39.9,37,38,37.3,36c0.3-2.1,1.1-4.1,1.7-6.1c0.2-0.7,0.7-1.3,0.9-1.9c0.2-0.6,0.1-1.4,0.1-2
		C39.3,26,38.7,25.9,38.1,25.9"/>
	<path fill="#FFFFFF" d="M60.4,58.5c2.1,2.1,2.4,4.7,1.9,7.3c-0.3,1.5-1.1,3-1.7,4.4c-0.5,1.3-1.4,2.5-0.6,4.1
		c0.6-0.3,1.1-0.5,1.7-0.7c0,0.2,0.1,0.3,0.1,0.4c-0.6,1-1,2.6-2.4,2.1c-1.4-0.5-1.1-2.1-0.8-3.3c0.4-1.3,1-2.5,1.6-3.7
		c1.5-2.9,1.5-5.7-0.4-8.4C59.2,59.9,59,59.2,60.4,58.5"/>
	<path fill="#FFFFFF" d="M73.9,38.2c1.2,0.2,2.7,0.8,2.3,2.2c-0.4,1.4-1.9,1.2-3.1,0.8c-1.3-0.4-2.6-0.9-3.8-1.6
		c-3-1.6-5.9-1.6-8.7,0.3c-0.9,0.7-1.6,0.5-2.2-0.6c2.4-2.4,5.2-2.4,8.2-1.7c1.1,0.3,2.2,0.9,3.3,1.3c0.6,0.3,1.3,0.7,1.9,0.9
		c0.7,0.1,1.5,0,2.2,0C74,39.4,73.9,38.8,73.9,38.2"/>
	<path fill="#FFFFFF" d="M25.4,60.1c0.3,0.6,0.5,1.1,0.8,1.8c-0.6-0.2-1.1-0.2-1.3-0.4c-0.5-0.6-0.9-1.3-1.4-2
		c0.8-0.3,1.6-0.9,2.3-0.8c1.4,0.2,2.8,0.7,4,1.3c3.2,1.7,6.2,2,9.4-0.1c0.5-0.3,1.3-0.1,2,0.2c-0.9,1.7-2.4,2.3-4,2.4
		c-2.7,0.3-5.1-0.4-7.5-1.7C28.4,60.1,27.2,59.2,25.4,60.1"/>
	<path fill="#FFFFFF" d="M31.7,80c-0.4-0.6-0.8-1.2-1.2-1.9c0.7-0.2,1.4-0.7,2-0.7c1,0.1,2.1,0.5,3,1c2.4,1.3,4.7,1.5,7.1,0
		c0.4-0.2,1-0.1,1.5-0.1c-0.3,0.5-0.5,1.2-0.9,1.4c-2.3,1.2-4.5,1.1-6.8-0.1c-0.9-0.5-1.8-1-2.7-1.3c-1.1-0.4-1.7,0-1.5,1.3
		C32.1,79.8,31.9,79.9,31.7,80"/>
	<path fill="#FFFFFF" d="M78.5,67.8c0.8-0.1,1.2-0.2,1.6-0.3c0.1,0.2,0.2,0.3,0.3,0.5c-0.7,0.4-1.3,0.8-2,1.2
		c-0.2-0.8-0.8-1.6-0.7-2.3c0.2-1.2,0.8-2.3,1.4-3.4c1-2,0.9-4-0.3-5.9c-0.1-0.2-0.3-0.3-0.3-0.5c0-0.5,0.1-0.9,0.1-1.4
		c0.4,0.2,1,0.3,1.2,0.7c1.4,2.3,1.1,4.6,0.2,6.9c-0.2,0.5-0.6,0.9-0.8,1.4C79,65.7,78.8,66.6,78.5,67.8"/>
	<path fill="#FFFFFF" d="M56.1,20.5c1.8-1.8,4-2,6.3-1.3c1.3,0.4,2.6,1.2,3.9,1.7c0.5,0.2,1.1,0.1,1.7,0.1c0-0.5,0-1,0-1.6
		c0.4,0.2,0.9,0.3,1.2,0.6c0.3,0.3,0.7,0.9,0.6,1.2c-0.2,0.4-0.8,0.9-1.2,0.8c-1.3-0.2-2.7-0.5-3.9-1.1c-2.4-1.4-4.7-1.4-7,0.1
		c-0.4,0.3-1,0.1-1.5,0.2C56.1,21,56.1,20.7,56.1,20.5"/>
	<path fill="#FFFFFF" d="M20.6,43.8c-1.9-2.2-1.9-4.6-1-7.2c0.4-1,1-1.9,1.4-2.9c0.6-1.5,0.3-1.9-1.5-2.4c0.7-0.4,1.3-0.8,2-1.2
		c0.2,0.7,0.7,1.5,0.6,2.2c-0.2,1.1-0.6,2.2-1.1,3.1c-1.2,2.2-1.3,4.3,0.1,6.5c0.3,0.5,0.2,1.2,0.3,1.8L20.6,43.8z"/>
	<path fill="#FFFFFF" d="M34.6,60.2l-4-11.1c0.2-0.1,0.5-0.2,0.7-0.3c1.6,3.6,2.9,7.3,4.1,11C35.1,60,34.8,60.1,34.6,60.2"/>
	<path fill="#FFFFFF" d="M44.7,37.1c0.5-1.1,0.8-2.7,2.4-2.3c1.5,0.4,1.2,2,0.8,3.1c-0.6,1.8-1.4,3.5-2.1,5.2
		c-0.2,0-0.3-0.1-0.5-0.1c0.1-0.3,0.1-0.7,0.2-1c0.1-0.3,0.3-0.7,0.4-1c0.3-0.8,0.7-1.5,0.8-2.3c0.1-0.5,0-1.3-0.3-1.6
		C46.2,36.7,45.5,37,44.7,37.1"/>
	<path fill="#FFFFFF" d="M51.9,31c-3.7,1.4-7.4,2.7-11.1,4.1c-0.1-0.3-0.2-0.6-0.3-0.9c3.7-1.3,7.4-2.7,11.1-4L51.9,31z"/>
	<path fill="#FFFFFF" d="M36.9,53.4c0.1,0.6,0.2,1.1,0.3,1.7c0,0-0.1,0.1-0.1,0c-1.1-0.5-2.7-0.8-2.2-2.4c0.4-1.5,2-1.1,3.1-0.8
		c1.8,0.6,3.5,1.4,5.2,2.1c-0.1,0.2-0.2,0.4-0.2,0.6c-1.3-0.5-2.6-1.1-3.9-1.5"/>
	<path fill="#FFFFFF" d="M57.1,45.2c1.4,0.5,2.7,1,4.1,1.4c0.5,0.1,1.2-0.1,1.8-0.2c-0.1-0.5-0.2-1.1-0.4-1.6c0.1,0,0.3-0.1,0.4,0
		c0.7,0.7,2.1,1.7,2,2.3c-0.3,1.5-1.9,1.2-3,0.9c-1.8-0.6-3.5-1.4-5.3-2.1C57,45.6,57,45.4,57.1,45.2"/>
	<path fill="#FFFFFF" d="M70,51.4c-1.9-3.5-3-7.3-4.2-11c0.3-0.1,0.5-0.2,0.8-0.3c1.3,3.7,2.7,7.4,4,11.1
		C70.4,51.3,70.2,51.3,70,51.4"/>
	<path fill="#FFFFFF" d="M49.3,69.7c3.4-2,7.2-3.1,11.2-4.4C60,66.4,51.4,69.8,49.3,69.7"/>
	<path fill="#FFFFFF" d="M55.3,62.7c-0.6,1.2-0.9,2.8-2.5,2.4c-1.5-0.4-1.2-2.1-0.8-3.2c0.5-1.6,1.3-3.2,2-4.8l0.5,0.2
		c-0.4,1.3-0.9,2.5-1.3,3.8c-0.1,0.6,0.1,1.2,0.1,1.9C54,62.9,54.5,62.8,55.3,62.7"/>
	<path fill="#FFFFFF" d="M27.5,55.4c-2.3-2.3-2.3-2.5,0.4-4.1C30.4,53.2,30.4,53.7,27.5,55.4"/>
	<path fill="#FFFFFF" d="M53.7,70.2c2.4,2.3,2.3,2.6-0.5,4.2C50.8,72.3,50.8,71.9,53.7,70.2"/>
	<path fill="#FFFFFF" d="M45.5,26.5c-0.3,0.2-0.7,0.5-1.1,0.8c0.4,0.5,0.7,1,1,1.4c0.3,0.4,0.6,0.8,0.9,1.1c0.5-0.3,1-0.6,1.3-0.8
		c1.2-0.9,1.3-1.4,0.3-2.5c-0.3-0.3-0.6-0.6-1-1C46.5,25.8,46,26.2,45.5,26.5"/>
	<path fill="#FFFFFF" d="M74.5,46.9c-2.2,2.3-2.6,2.3-4.1-0.5C72.4,44,72.8,44.1,74.5,46.9"/>
	<path fill="#FFFFFF" d="M47.9,53.7c1.2,0.3,2,1,1.5,2.2C49,57.1,47.8,57,47,56.5c-1.3-0.9-2.5-2.1-3.8-3.2c0.2-0.2,0.3-0.4,0.5-0.6
		c0.5,0.5,1.1,1,1.6,1.5C46.7,55.7,47.2,55.6,47.9,53.7"/>
	<path fill="#FFFFFF" d="M50.6,48.1c0-0.1-0.1-0.4-0.4-1.3c0.9,0.8,1.3,1.2,2.1,2c-1.4,0.3-2.3,0.5-3.3,0.7c0,0.2,0,0.4,0,0.6
		c0.8,0,1.6,0.1,3,0.1c-1.1,0.5-1.8,0.7-2.4,1c0,0.1,0,0.1,0,0.2c0.6-0.1,1.2-0.2,1.9-0.3l0.1,0.6c-0.9,0.1-2.1,0.7-2.6,0.3
		c-0.7-0.5-1.2-1.8-1.1-2.6C48.2,49,49.6,48.7,50.6,48.1"/>
	<path fill="#FFFFFF" d="M35.2,39.4c3.2,2.3,3.6,5.6,3.7,9c-1.7,0.1-1.5-1.4-1.4-2.3c0.3-2.3-0.5-4.1-2-5.8
		C35.3,40.1,35.3,39.8,35.2,39.4"/>
	<path fill="#FFFFFF" d="M56.1,47.8c-0.7-0.7-1.3-1.5-2.1-2.1c-1.1-1-1.7-0.7-2.1,0.9c-1.2-0.2-2-0.9-1.6-2.2
		c0.4-1.2,1.6-1.1,2.4-0.5c1.4,1,2.6,2.2,3.9,3.3L56.1,47.8z"/>
	<path fill="#FFFFFF" d="M47.5,44c-0.6,0.6-1.3,1.2-1.9,1.8c-1.2,1.3-1,1.8,0.7,2.4c-0.3,1.2-1,2.1-2.2,1.5
		c-0.5-0.2-0.8-1.8-0.5-2.3c0.9-1.4,2.1-2.6,3.2-3.9C47.1,43.6,47.3,43.8,47.5,44"/>
	<path fill="#FFFFFF" d="M51.5,39.1c0.2-2.1,2-1.6,2.8-1.5c2,0.4,3.3-0.5,4.7-1.6c0.4-0.3,0.9-0.5,1.6-0.4c-1.3,1-2.5,2.2-4,2.8
		C55,39.1,53.2,39,51.5,39.1"/>
	<path fill="#FFFFFF" d="M45.8,57.6c-1.2,0.4-1.9,0.6-2.6,0.8c-1.1,0.4-2,0.1-2.5-0.9c-0.2-0.3-0.2-0.9-0.1-1.1
		c0.2-0.3,0.8-0.5,1-0.4C43,56.4,44.2,57,45.8,57.6"/>
	<path fill="#FFFFFF" d="M42.4,45.1c-0.3-1.3-0.6-2-0.7-2.8c-0.1-0.6,0-1.4,0.4-1.8c0.3-0.4,1.1-0.5,1.6-0.7
		c0.1,0.5,0.5,1.1,0.4,1.6C43.6,42.6,43,43.7,42.4,45.1"/>
	<path fill="#FFFFFF" d="M53.4,52c0.4-1.1,1-1.8,2.2-1.4c1.2,0.5,1,1.6,0.5,2.4c-0.9,1.3-2,2.5-3.1,3.7c-0.2-0.2-0.4-0.3-0.6-0.5
		c0.5-0.5,0.9-0.9,1.4-1.4C55.3,53.3,55.3,53,53.4,52"/>
	<path fill="#FFFFFF" d="M39.1,64.6c2.4-2.9,5.4-3.9,9.4-3.5c-0.6,0.5-1.2,1.2-1.7,1.2c-2.6-0.1-5,0.3-6.9,2.2
		C39.7,64.5,39.4,64.5,39.1,64.6"/>
	<path fill="#FFFFFF" d="M57.8,54.8c0.3,1.2,0.7,1.8,0.7,2.5c0,0.8-0.3,1.7-0.6,2.4c-0.1,0.2-1,0.3-1.4,0.2
		c-0.3-0.1-0.5-0.9-0.4-1.2C56.5,57.5,57.1,56.3,57.8,54.8"/>
	<path fill="#FFFFFF" d="M60.7,51.7c1.9,0.1,1.6,1.9,1.4,2.6c-0.4,2.2,0.5,3.6,1.7,5.1c0.2,0.3,0.3,0.6,0.5,1.1
		C61.7,58.6,61,56.9,60.7,51.7"/>
	<path fill="#FFFFFF" d="M55.6,42.4c1.2-0.4,1.8-0.7,2.4-0.8c0.7,0,1.5,0,2.2,0.4c0.3,0.2,0.5,1,0.4,1.5c0,0.2-0.9,0.6-1.3,0.5
		C58.2,43.6,57.1,43,55.6,42.4"/>
	<path fill="#FFFFFF" d="M59.4,50.5c0.3-0.5,0.4-0.8,0.6-1c0.3-0.3,0.7-0.5,1.1-0.7c0.1,0,0.4,0.4,0.5,0.6c-0.3,0.2-0.7,0.4-0.9,0.7
		c-0.6,0.8-1.1,1.7-1.7,2.5c-0.4-0.8-0.9-1.5-1.3-2.2c-0.2-0.4-0.2-1-0.3-1.4c0.4,0.2,0.9,0.3,1.2,0.6C59,49.6,59.1,50,59.4,50.5"/>
	<path fill="#FFFFFF" d="M47.7,59.2c0.6-0.4,1.5-1,2.4-1.5c0.3-0.2,0.7,0,1.1,0c-0.1,0.4,0,0.8-0.2,1c-0.2,0.3-0.7,0.5-1.1,0.8
		c0.5,0.4,0.9,0.8,1.3,1.2c0.1,0.2,0.1,0.7-0.1,0.9c-0.1,0.1-0.6,0.2-0.8,0.1C49.4,60.9,48.5,60,47.7,59.2"/>
	<path fill="#FFFFFF" d="M49.3,38.5c1.5,1.1,2.4,1.8,3.3,2.4c-0.8,0.5-1.6,1.1-2.4,1.7c-0.2,0.1-0.6,0-0.9,0c0-0.4-0.1-0.8,0.1-1.1
		c0.2-0.3,0.6-0.5,1-0.8C50.2,40,48.2,39.6,49.3,38.5"/>
	<path fill="#FFFFFF" d="M40.7,47.3c0.6,0.9,1.2,1.8,1.8,2.7c0.1,0.2,0.1,0.7-0.1,0.9c-0.2,0.2-0.7,0.2-0.9,0
		C40.6,50.4,40.2,48.2,40.7,47.3"/>
	<path fill="#FFFFFF" d="M74.9,35.4c-1.3,0.4-2,0.7-2.7,0.8c-0.2,0-0.6-0.3-0.8-0.4c0.2-0.3,0.3-0.9,0.5-0.9
		C72.8,34.9,73.7,35.1,74.9,35.4"/>
	<path fill="#FFFFFF" d="M65.1,51.2c-0.4-0.6-0.8-0.9-0.9-1.4c0-0.2,0.7-0.8,1-0.7c0.4,0.1,0.8,0.6,0.9,1
		C66.2,50.4,65.6,50.8,65.1,51.2"/>
	<path fill="#FFFFFF" d="M35.1,25.1c0.2,0.7,0.5,1.4,0.6,2.2c0,0.3-0.2,0.6-0.4,0.8c-0.3-0.2-0.8-0.3-0.8-0.5c0-0.9,0.1-1.8,0.2-2.6
		C34.9,25,35,25,35.1,25.1"/>
	<path fill="#FFFFFF" d="M34.7,50.9c-0.3-0.6-0.8-1.1-0.7-1.5c0-0.3,0.8-0.8,1-0.7c0.4,0.2,0.8,0.7,0.8,1.1
		C35.8,50.1,35.2,50.4,34.7,50.9"/>
	<path fill="#FFFFFF" d="M50.2,35.9c-0.4-0.6-0.9-1-0.8-1.3c0.1-0.4,0.7-0.7,1-1c0.3,0.4,0.7,0.7,0.7,1.1
		C51.1,35.1,50.6,35.4,50.2,35.9"/>
	<path fill="#FFFFFF" d="M88,63.7c0.2,0.6,0.4,1.2,0.5,1.7c0,0.3-0.3,0.7-0.4,1c-0.2-0.3-0.7-0.5-0.7-0.8c0-0.7,0.2-1.4,0.3-2.1
		C87.8,63.6,87.9,63.7,88,63.7"/>
	<path fill="#FFFFFF" d="M12.2,37.2c-0.3-1.2-0.5-2-0.5-2.8c0-0.3,0.2-0.6,0.3-1c0.3,0.2,0.8,0.5,0.8,0.6
		C12.7,35.1,12.4,36,12.2,37.2"/>
	<path fill="#FFFFFF" d="M63.6,12.4c0.9-0.3,1.3-0.4,1.7-0.5c0.4-0.1,0.7-0.2,1.1-0.2c0.1,0,0.3,0.5,0.2,0.6
		c-0.4,0.2-0.8,0.5-1.2,0.6C65,12.8,64.6,12.6,63.6,12.4"/>
</g>
</svg>
