<?xml version="1.0" encoding="utf-8"?>
<!-- Generator: Adobe Illustrator 17.0.0, SVG Export Plug-In . SVG Version: 6.00 Build 0)  -->
<!DOCTYPE svg PUBLIC "-//W3C//DTD SVG 1.1//EN" "http://www.w3.org/Graphics/SVG/1.1/DTD/svg11.dtd">
<svg version="1.1" id="Layer_1" xmlns="http://www.w3.org/2000/svg" xmlns:xlink="http://www.w3.org/1999/xlink" x="0px" y="0px"
	 width="196px" height="41px" viewBox="0 0 196 41" enable-background="new 0 0 196 41" xml:space="preserve">
<g>
	<path fill="#58585B" d="M196,26.969c-0.156,0.486-0.27,0.993-0.481,1.456c-0.407,0.886-0.95,1.162-1.837,0.776
		c-1.04-0.453-2.009-1.076-3.025-1.593c-0.121-0.06-0.426,0.036-0.515,0.155c-0.608,0.813-1.245,1.573-2.085,2.185
		c-1.112,0.81-2.358,0.831-3.602,0.7c-0.94-0.1-1.785-0.565-2.375-1.374c-0.012-0.016-0.02-0.033-0.029-0.048
		c-0.374-0.616-0.442-0.58-0.861-0.041c-0.475,0.61-0.97,1.271-1.604,1.685c-1.164,0.765-2.41,0.188-2.892-1.2
		c-0.054-0.156-0.122-0.308-0.183-0.459c-0.099,0.122-0.204,0.241-0.297,0.37c-0.785,1.115-1.729,2.015-3.118,2.317
		c-1.362,0.296-2.526-0.135-3.075-1.308c-0.26-0.555-0.238-1.241-0.346-1.868c-0.013-0.083-0.042-0.16-0.063-0.24
		c-0.063,0.025-0.132,0.039-0.185,0.076c-1.358,0.947-2.855,1.608-4.445,2.041c-0.793,0.215-1.541-0.113-2.201-0.553
		c-0.405-0.272-0.746-0.639-1.131-0.948c-0.068-0.055-0.236-0.076-0.303-0.029c-1.438,0.987-2.824,2.06-4.318,2.953
		c-0.854,0.51-1.873,0.755-2.829,1.081c-2.073,0.705-4.151,1.391-6.233,2.069c-0.215,0.071-0.463,0.043-0.696,0.061
		c0.169-0.164,0.312-0.375,0.511-0.485c2.344-1.308,4.734-2.536,7.035-3.913c1.854-1.106,3.604-2.386,5.395-3.598
		c0.055-0.037,0.091-0.158,0.076-0.23c-0.324-1.688-0.742-3.362-0.966-5.063c-0.45-3.403-0.808-6.819-1.174-10.233
		c-0.303-2.801-1.082-5.484-1.888-8.167c-0.102-0.344,0.078-0.779,0.158-1.166c0.08-0.389,0.191-0.771,0.303-1.154
		c0.031-0.104,0.118-0.192,0.178-0.289c0.096,0.069,0.24,0.117,0.279,0.209c0.314,0.74,0.656,1.471,0.904,2.234
		c1.064,3.295,1.571,6.703,1.926,10.132c0.309,2.965,0.492,5.942,0.857,8.898c0.14,1.124,0.629,2.205,0.972,3.303
		c0.018,0.055,0.192,0.127,0.216,0.104c1.231-1.097,2.456-2.195,3.668-3.31c0.375-0.343,0.469-0.771,0.203-1.233
		c-0.605-1.061-1.225-2.114-1.822-3.179c-0.312-0.553-0.594-1.123-0.888-1.685c-0.032-0.058-0.065-0.15-0.11-0.158
		c-0.61-0.101-0.366-0.527-0.315-0.856c0.087-0.578,0.202-1.153,0.324-1.727c0.007-0.034,0.189-0.085,0.223-0.054
		c0.754,0.68,1.498,1.37,2.238,2.064c0.018,0.015-0.033,0.153-0.059,0.156c-0.227,0.021-0.456,0.021-0.685,0.033
		c-0.07,0.002-0.14,0.022-0.211,0.034c0.033,0.063,0.067,0.128,0.104,0.188c0.606,0.98,1.418,1.891,1.78,2.954
		c0.808,2.367,0.563,4.639-1.313,6.522c-0.583,0.586-1.167,1.166-1.739,1.761c-0.04,0.044-0.019,0.23,0.033,0.272
		c0.849,0.635,1.808,0.537,2.691,0.22c1.515-0.543,2.983-1.21,4.469-1.826c0.068-0.026,0.139-0.051,0.207-0.076
		c0.007,0.084,0.025,0.171,0.011,0.251c-0.028,0.148-0.069,0.295-0.113,0.438c-0.31,1.002-0.069,1.724,0.838,2.289
		c1.076,0.67,2.137,0.421,3.176-0.136c0.871-0.466,1.407-1.24,1.948-2.027c0.224-0.327,0.516-0.605,0.793-0.892
		c0.059-0.06,0.184-0.056,0.277-0.081c0.003,0.088,0.02,0.178,0.003,0.262c-0.036,0.156-0.088,0.308-0.139,0.463
		c-0.255,0.777,0.063,1.371,0.997,1.849c0.665,0.34,1.625,0.135,2.036-0.43c0.076-0.106,0.157-0.223,0.266-0.292
		c0.668-0.437,0.791-1.185,1.079-1.838c0.053-0.122,0.074-0.282,0.164-0.354c0.161-0.127,0.361-0.199,0.547-0.294
		c-0.006,0.168-0.048,0.349-0.007,0.506c0.118,0.467,0.237,0.94,0.426,1.383c0.121,0.286,0.365,0.518,0.551,0.779
		c0.74,1.043,2.268,1.11,3.219,0.656c1.035-0.493,1.659-1.389,2.286-2.314c0.554-0.813,1.27-1.511,1.905-2.268
		c0.292-0.347,0.533-0.741,0.851-1.062c1.198-1.21,2.751-0.94,3.373,0.639c0.308,0.779,0.404,1.643,0.598,2.467
		c0.021,0.085,0.043,0.172,0.064,0.26C196,26.438,196,26.703,196,26.969z M192.704,24.641c-0.171,0.059-0.481,0.156-0.786,0.277
		c-0.041,0.015-0.074,0.195-0.049,0.211c0.536,0.375,1.071,0.751,1.626,1.095c0.135,0.083,0.337,0.055,0.51,0.076
		c-0.024-0.176-0.028-0.354-0.075-0.522C193.748,25.144,193.277,24.655,192.704,24.641z"/>
	<path fill="#58585B" d="M196,15.854c-0.169,0.558-0.358,0.72-0.816,0.167c-0.281-0.339-0.555-0.005-0.641,0.28
		c-0.224,0.731-0.392,1.479-0.596,2.217c-0.113,0.416-0.246,0.828-0.389,1.236c-0.026,0.078-0.147,0.122-0.227,0.181
		c-0.043-0.091-0.094-0.178-0.125-0.272c-0.27-0.832-0.521-1.67-0.806-2.496c-0.087-0.25-0.239-0.4-0.562-0.181
		c-0.108,0.074-0.459-0.073-0.604-0.217c-0.168-0.164-0.231-0.433-0.34-0.658c-0.004-0.011,0.012-0.035,0.023-0.051
		c0.195-0.277,0.417-0.801,0.581-0.783c0.38,0.041,0.888,0.253,1.062,0.558c0.386,0.666,0.594,1.433,0.875,2.158
		c0.032,0.083,0.065,0.165,0.096,0.247c0.027-0.076,0.059-0.152,0.079-0.231c0.165-0.699,0.329-1.399,0.495-2.1
		c0.016-0.063,0.027-0.131,0.057-0.189c0.215-0.423,0.414-0.983,0.943-0.937c0.316,0.028,0.597,0.472,0.893,0.73
		C196,15.627,196,15.741,196,15.854z"/>
	<path fill="#58585B" d="M71.698,40.989c-0.061-0.521,0.076-0.875,0.607-1.145c2.245-1.146,4.461-2.351,6.691-3.524
		c0.417-0.219,0.857-0.395,1.282-0.601c0.208-0.101,0.241-0.052,0.259,0.174c0.053,0.659-0.512,0.729-0.886,0.922
		c-1.542,0.798-3.112,1.531-4.654,2.325c-1.054,0.543-2.075,1.142-3.109,1.721c-0.052,0.029-0.088,0.084-0.132,0.128
		C71.737,40.989,71.717,40.989,71.698,40.989z"/>
	<path fill="#58585B" d="M157.074,40.989c0.428-0.515,0.871-1.017,1.283-1.545c0.371-0.478,0.729-0.968,1.052-1.48
		c0.232-0.367,0.371-0.872-0.019-1.134c-0.254-0.175-0.726-0.037-1.1-0.018c-0.131,0.007-0.256,0.082-0.383,0.127
		c0.01-0.13,0.008-0.259,0.029-0.386c0.182-0.981,0.771-1.591,1.541-1.595c0.68-0.002,1.059,0.381,1.086,1.069
		c0.053,1.338-0.627,2.372-1.457,3.292c-0.563,0.624-1.275,1.116-1.919,1.669C157.15,40.989,157.112,40.989,157.074,40.989z"/>
	<path fill="#58585B" d="M1.824,0.011C1.54,1.012,1.191,2.001,0.995,3.019C0.846,3.792,0.858,4.604,0.879,5.396
		C0.884,5.6,1.17,5.92,1.373,5.959C1.588,6,1.9,5.819,2.087,5.647C2.302,5.449,2.424,5.15,2.59,4.898
		C2.623,4.85,2.676,4.814,2.72,4.773c0.007,0.054,0.033,0.114,0.018,0.16C2.504,5.63,2.304,6.341,2.015,7.013
		c-0.178,0.41-0.582,0.596-1.047,0.511C0.511,7.44,0.297,7.099,0.169,6.689C0.114,6.514,0.057,6.341,0,6.166C0,5.844,0,5.52,0,5.197
		c0.02-0.038,0.053-0.076,0.055-0.116c0.135-1.837,0.772-3.505,1.712-5.07C1.786,0.011,1.805,0.011,1.824,0.011z"/>
	<path fill="#58585B" d="M90.106,40.989c0.428-0.514,0.867-1.02,1.279-1.545c0.356-0.452,0.682-0.93,1.017-1.4
		c0.064-0.091,0.146-0.204,0.14-0.304c-0.015-0.333,0.051-0.821-0.129-0.951c-0.232-0.17-0.675-0.067-1.026-0.05
		c-0.146,0.008-0.286,0.101-0.428,0.155c0.018-0.164,0.009-0.337,0.059-0.491c0.168-0.531,0.347-1.079,0.93-1.305
		c0.827-0.317,1.602-0.102,1.646,0.966c0.049,1.225-0.542,2.205-1.297,3.059c-0.614,0.691-1.378,1.25-2.076,1.866
		C90.182,40.989,90.145,40.989,90.106,40.989z"/>
	<path fill="#58585B" d="M40.922,40.989c0.43-0.514,0.874-1.017,1.289-1.542c0.357-0.453,0.684-0.933,1.018-1.403
		c0.06-0.081,0.135-0.186,0.132-0.276c-0.01-0.335,0.073-0.806-0.107-0.962c-0.204-0.177-0.656-0.097-0.997-0.081
		c-0.156,0.006-0.307,0.124-0.459,0.193c0.026-0.186,0.036-0.376,0.082-0.555c0.252-0.959,0.759-1.374,1.602-1.374
		c0.553,0.003,0.822,0.313,0.908,0.798c0.182,1.014-0.247,1.868-0.768,2.689c-0.663,1.043-1.557,1.847-2.586,2.513
		C40.997,40.989,40.96,40.989,40.922,40.989z"/>
	<path fill="#58585B" d="M113.93,40.989c0.428-0.514,0.875-1.011,1.275-1.545c0.412-0.548,0.828-1.103,1.141-1.709
		c0.121-0.235,0.076-0.736-0.096-0.897c-0.184-0.175-0.611-0.121-0.93-0.107c-0.189,0.009-0.371,0.137-0.557,0.21
		c0.041-0.235,0.064-0.475,0.127-0.703c0.197-0.716,0.594-1.207,1.41-1.233c0.621-0.021,1.09,0.404,1.115,1.027
		c0.051,1.335-0.627,2.366-1.459,3.286c-0.563,0.626-1.27,1.119-1.912,1.672C114.006,40.989,113.969,40.989,113.93,40.989z"/>
	<path fill="#58585B" d="M0.042,28.508H0.021H0c0-0.59,0-1.178,0-1.768c0.015,0,0.03,0,0.045,0
		C0.044,27.33,0.042,27.919,0.042,28.508z"/>
	<path fill="#58585B" d="M73.356,24.474c-0.062,2.603-1.345,5.649-3.787,8.204c-1.162,1.215-2.693,1.729-4.278,2.1
		c-0.811,0.189-1.628,0.347-2.446,0.505c-0.118,0.024-0.25-0.024-0.375-0.041c0.093-0.102,0.17-0.228,0.282-0.296
		c1.048-0.634,2.127-1.215,3.146-1.892c1.275-0.843,2.624-1.634,3.726-2.677c1.888-1.789,2.848-4.07,2.733-6.717
		c-0.067-1.568-0.519-3.067-1.29-4.411c-1.19-2.068-2.51-4.062-3.78-6.084c-0.33-0.525-0.678-1.039-1.021-1.557
		c-0.033-0.05-0.088-0.086-0.132-0.128c-0.011,0.059-0.032,0.118-0.025,0.175c0.25,2.092,0.511,4.182,0.755,6.273
		c0.272,2.339,0.511,4.682,0.799,7.021c0.215,1.746,0.264,3.486-0.281,5.174c-0.568,1.764-1.669,3.048-3.6,3.354
		c-1.106,0.174-2.134-0.229-3.07-0.757c-1.246-0.701-2.434-1.503-3.654-2.25c-0.101-0.063-0.3-0.068-0.404-0.011
		c-1.878,1.035-3.668,2.257-5.781,2.803c-2.104,0.543-4.052,0.179-5.761-1.17c-0.338-0.268-0.497-0.204-0.821-0.049
		c-1.063,0.501-2.116,1.094-3.242,1.379c-1.385,0.354-2.501-0.398-3.465-1.355c-1.473-1.466-1.948-3.343-2.186-5.309
		c-0.474-3.934-0.909-7.873-1.398-11.806c-0.189-1.518-0.468-3.025-0.735-4.532c-0.08-0.45-0.254-0.884-0.387-1.325
		c-0.271-0.9-0.582-1.792-0.796-2.707c-0.077-0.324,0.063-0.705,0.141-1.053c0.101-0.457,0.234-0.906,0.363-1.358
		c0.02-0.067,0.084-0.123,0.127-0.185c0.077,0.058,0.19,0.099,0.224,0.176c0.314,0.692,0.679,1.374,0.904,2.096
		c0.372,1.194,0.74,2.4,0.954,3.629c0.443,2.537,0.849,5.084,1.149,7.641c0.309,2.609,0.441,5.238,0.711,7.854
		c0.206,2.009,0.846,3.842,2.491,5.181c0.771,0.63,1.647,0.611,2.539,0.451c0.575-0.105,1.136-0.283,1.696-0.456
		c0.081-0.025,0.187-0.239,0.158-0.319c-0.88-2.473,0.347-5.293,1.736-6.458c0.304-0.257,0.76-0.408,1.16-0.443
		c0.239-0.02,0.651,0.229,0.733,0.448c0.312,0.845,0.598,1.711,0.755,2.596c0.271,1.51-0.192,2.843-1.211,3.988
		c-0.016,0.017,0.045,0.147,0.096,0.172c1.166,0.568,2.405,0.586,3.669,0.538c1.696-0.066,3.145-0.765,4.532-1.647
		c0.055-0.035,0.084-0.241,0.055-0.259c-0.642-0.415-1.275-0.85-1.95-1.206c-0.719-0.38-1.439-0.139-2.14,0.142
		c-0.095,0.039-0.208,0.029-0.313,0.04c0.01-0.098-0.002-0.204,0.032-0.292c0.232-0.589,0.444-1.19,0.731-1.753
		c0.106-0.208,0.373-0.38,0.604-0.478c1.731-0.735,3.535-1.221,5.421-1.232c1.847-0.011,3.602,0.468,5.244,1.316
		c0.106,0.055,0.185,0.335,0.144,0.473c-0.119,0.398-0.335,0.766-0.454,1.164c-0.149,0.496-0.442,0.766-0.933,0.944
		c-0.754,0.276-1.474,0.651-2.206,0.984c-0.066,0.032-0.125,0.083-0.187,0.123c0.055,0.045,0.105,0.096,0.164,0.136
		c1.145,0.725,2.324,1.411,3.701,1.509c0.759,0.054,1.564-0.025,2.295-0.233c1.13-0.32,1.566-1.199,1.403-2.643
		c-0.452-4.004-0.937-8.005-1.403-12.006c-0.176-1.508-0.345-3.016-0.516-4.523C64.572,10.3,64.373,9.157,64.35,8.01
		c-0.012-0.609,0.284-1.227,0.459-1.834c0.009-0.029,0.284-0.044,0.316,0.009c2.069,3.313,4.162,6.611,6.172,9.959
		C72.717,18.507,73.356,21.029,73.356,24.474z M44.269,27.637c0.024,0.056,0.052,0.172,0.118,0.256
		c0.256,0.328,0.515,0.656,0.794,0.962c0.053,0.059,0.255,0.07,0.312,0.02c0.448-0.408,0.879-0.832,1.307-1.262
		c0.058-0.056,0.116-0.19,0.088-0.244c-0.245-0.46-0.5-0.916-0.779-1.359c-0.047-0.075-0.222-0.126-0.322-0.109
		C45.27,26,44.329,27.064,44.269,27.637z M57.484,26.712c-0.302,0.032-0.547,0.055-0.791,0.084
		c-0.042,0.007-0.083,0.032-0.124,0.047c0.022,0.037,0.04,0.079,0.069,0.109c0.692,0.711,0.692,0.711,1.567,0.269
		c0.135-0.068,0.275-0.127,0.409-0.197c0.046-0.024,0.083-0.067,0.123-0.101c-0.051-0.019-0.101-0.051-0.154-0.059
		C58.201,26.81,57.816,26.758,57.484,26.712z"/>
	<path fill="#58585B" d="M142.44,30.68c2.663-0.021,5.001-0.655,7.265-1.606c2.41-1.011,4.637-2.333,6.654-4.002
		c0.589-0.488,0.572-0.748-0.164-0.956c-1.291-0.37-2.611-0.631-3.909-0.968c-0.631-0.162-1.262-0.345-1.862-0.596
		c-1.276-0.532-1.701-1.444-1.546-2.826c0.321-2.869,1.782-5.14,3.653-7.208c0.674-0.744,1.37-1.471,2.326-1.86
		c0.286-0.116,0.593-0.201,0.896-0.245c0.87-0.127,1.493,0.259,1.607,1.125c0.088,0.658,0.058,1.359-0.076,2.01
		c-0.121,0.584-0.614,0.631-0.975,0.171c-0.75-0.954-1.451-0.992-2.501-0.178c-1.702,1.318-2.836,3.068-3.841,4.927
		c-0.23,0.428-0.102,0.719,0.243,1c0.833,0.684,1.83,0.961,2.853,1.19c1.117,0.251,2.236,0.505,3.346,0.791
		c1.031,0.266,1.371,0.786,1.426,1.863c0.094,1.811-0.592,3.195-2.027,4.314c-3.213,2.511-6.668,4.521-10.67,5.456
		c-1.466,0.344-2.953,0.512-4.444,0.109c-1.243-0.334-2.2-1.07-2.964-2.091c-0.057-0.072-0.271-0.117-0.35-0.069
		c-2.03,1.231-4.123,2.347-6.432,2.951c-1.285,0.337-2.612,0.54-3.934,0.697c-0.635,0.073-1.296-0.113-1.947-0.163
		c-2.066-0.155-3.322-1.443-4.34-3.075c-0.037-0.06-0.199-0.118-0.236-0.09c-1.555,1.218-3.479,1.537-5.275,2.158
		c-1.645,0.569-3.295,1.126-4.949,1.672c-0.203,0.066-0.439,0.03-0.659,0.042c0.155-0.15,0.29-0.345,0.476-0.446
		c2.254-1.253,4.521-2.475,6.768-3.74c0.957-0.539,1.871-1.154,2.797-1.749c0.076-0.048,0.145-0.203,0.125-0.288
		c-0.621-2.741-0.374-5.432,0.449-8.088c0.074-0.238,0.244-0.448,0.369-0.67c0.016,0.264,0.059,0.531,0.041,0.794
		c-0.096,1.498-0.289,2.996-0.278,4.494c0.005,0.89,0.319,1.778,0.513,2.662c0.01,0.047,0.221,0.118,0.268,0.083
		c1.812-1.393,3.627-2.779,5.41-4.207c0.519-0.416,0.973-0.925,1.409-1.433c0.56-0.649,0.37-1.366,0.015-2.022
		c-0.4-0.738-0.849-1.453-1.315-2.152c-0.534-0.802-1.106-1.579-1.673-2.358c-0.314-0.43-0.342-1.509-0.029-1.961
		c0.049-0.07,0.088-0.146,0.131-0.218c0.07-0.119,0.146-0.342,0.208-0.339c0.183,0.012,0.423,0.061,0.53,0.188
		c0.537,0.63,1.066,1.271,1.547,1.944c0.385,0.538,0.813,1.038,0.807,1.81c-0.001,0.413,0.39,0.829,0.601,1.244
		c0.472,0.933,0.412,1.942,0.452,2.943c0.059,1.473-0.612,2.621-1.542,3.667c-1.591,1.785-3.417,3.305-5.36,4.685
		c-0.197,0.142-0.215,0.236-0.023,0.364c0.525,0.351,1.012,0.839,1.593,1.013c1.225,0.368,2.482,0.62,3.796,0.38
		c0.963-0.176,1.971-0.132,2.92-0.352c1.094-0.254,2.164-0.644,3.21-1.063c0.901-0.36,1.759-0.842,2.626-1.289
		c0.09-0.046,0.182-0.239,0.159-0.337c-0.616-2.573-0.29-5.073,0.634-7.505c0.34-0.898,0.832-1.738,1.256-2.605
		c0.008-0.017,0.021-0.033,0.035-0.045c0.135-0.107,0.27-0.215,0.404-0.321c0.006,0.167,0.063,0.357,0.006,0.502
		c-0.352,0.89-0.793,1.749-1.085,2.657c-0.579,1.795-0.929,3.632-0.438,5.521c0.077,0.296,0.244,0.572,0.345,0.864
		c0.141,0.408,0.357,0.391,0.65,0.159c0.826-0.655,1.752-1.212,2.457-1.975c0.751-0.815,1.07-1.88,0.957-3.044
		c-0.093-0.943-0.424-1.776-1.022-2.49c-0.419-0.496-0.353-1.064-0.382-1.633c-0.03-0.542-0.103-1.082-0.145-1.624
		c-0.008-0.094,0.031-0.212,0.094-0.277c0.031-0.035,0.178-0.006,0.243,0.038c0.387,0.264,0.751,0.563,1.149,0.809
		c0.914,0.562,2.598-0.068,2.924-1.074c0.199-0.609,0.443-1.206,0.604-1.825c0.117-0.449,0.121-0.928,0.204-1.389
		c0.015-0.082,0.175-0.2,0.263-0.195c0.51,0.029,1.266,0.745,1.387,1.287c0.122,0.547,0.248,1.09,0.346,1.641
		c0.131,0.726-0.486,1.536-1.204,1.609c-0.047,0.005-0.13-0.013-0.138-0.037c-0.14-0.453-0.271-0.909-0.409-1.363
		c-0.017-0.051-0.065-0.089-0.099-0.134c-0.036,0.035-0.091,0.063-0.107,0.106c-0.201,0.536-0.414,1.068-0.592,1.613
		c-0.254,0.786-0.547,1.618-1.322,1.954c-0.556,0.241-0.581,0.359-0.516,0.956c0.109,0.971-0.102,1.978-0.17,2.97
		c-0.018,0.265,0.041,0.543-0.025,0.794c-0.131,0.498-0.271,1.006-0.501,1.461c-0.284,0.563-0.606,1.127-1.019,1.598
		c-0.508,0.578-1.123,1.058-1.693,1.579c-0.109,0.102-0.219,0.206-0.328,0.308c0.095,0.074,0.183,0.158,0.284,0.223
		C140.557,30.474,141.559,30.705,142.44,30.68z"/>
	<path fill="#58585B" d="M0.042,28.508c0-0.589,0.002-1.178,0.003-1.768c0.033-1.947,0.632-3.757,1.339-5.543
		c0.248-0.627,0.435-1.28,0.655-1.917c0.025-0.073,0.092-0.133,0.14-0.198c0.062,0.046,0.143,0.08,0.186,0.141
		c1.372,1.961,2.745,3.921,4.11,5.889c1.149,1.654,2.042,3.419,2.217,5.467c0.044,0.514-0.029,1.039-0.031,1.558
		c0,0.065,0.128,0.192,0.179,0.185c0.643-0.108,1.295-0.192,1.92-0.367c0.897-0.256,1.762-0.634,2.664-0.864
		c0.912-0.232,1.707-0.707,2.479-1.174c1.568-0.948,3.067-2.016,4.566-3.073c0.523-0.37,0.47-0.761-0.144-1.001
		c-0.744-0.29-1.524-0.508-2.304-0.689c-1.531-0.354-3.073-0.661-4.61-0.992c-0.242-0.051-0.392-0.152-0.31-0.451
		c0.16-0.58,0.272-1.178,0.458-1.75c0.049-0.146,0.301-0.317,0.463-0.321c2.064-0.038,3.977-0.543,5.694-1.727
		c0.741-0.511,1.499-0.993,2.255-1.479c0.101-0.064,0.256-0.113,0.356-0.08c0.062,0.021,0.092,0.212,0.092,0.326
		c-0.002,0.188-0.035,0.377-0.063,0.563c-0.161,1.086,0.898,2.342,2.004,2.248c0.716-0.062,1.503-0.195,2.094-0.561
		c0.483-0.298,0.727-0.985,1.071-1.503c0.378-0.569,0.744-1.146,1.13-1.711c0.053-0.076,0.19-0.094,0.29-0.139
		c0.017,0.106,0.068,0.221,0.045,0.318c-0.092,0.395-0.179,0.794-0.323,1.172c-0.128,0.337,0.016,0.506,0.244,0.724
		c0.924,0.878,1.924,0.903,3.008,0.348c0.478-0.244,0.187-0.557,0.035-0.772c-0.543-0.77-0.611-2.042-0.081-2.829
		c0.035-0.053,0.285-0.051,0.33,0.007c0.522,0.675,0.73,1.475,0.754,2.304c0.031,1.094-0.055,2.184-0.696,3.13
		c-0.907,1.337-3.08,1.279-3.928-0.088c-0.135-0.216-0.332-0.396-0.511-0.581c-0.024-0.025-0.146-0.006-0.175,0.029
		c-0.367,0.459-0.803,0.884-1.066,1.397c-0.372,0.725-0.982,1.006-1.695,1.146c-0.877,0.173-1.726,0.084-2.456-0.5
		c-0.751-0.599-1.01-1.411-0.983-2.344c0.002-0.082-0.017-0.164-0.026-0.246c-0.07,0.041-0.143,0.076-0.209,0.122
		c-0.794,0.552-1.587,1.104-2.38,1.658c-0.036,0.022-0.066,0.056-0.098,0.085c0.04,0.013,0.08,0.028,0.122,0.034
		c0.448,0.07,0.897,0.135,1.345,0.206c1.428,0.232,2.118,1.771,1.965,3.257c-0.16,1.544-1.086,2.499-2.247,3.307
		c-1.448,1.003-2.879,2.049-4.409,2.912c-2.353,1.328-4.802,2.466-7.534,2.822c-0.167,0.021-0.372,0.161-0.464,0.307
		c-0.835,1.302-1.771,2.501-3.286,3.048c-0.644,0.232-1.329,0.35-1.998,0.509c-0.556,0.131-1.114,0.245-1.674,0.361
		c-0.075,0.015-0.159-0.007-0.237-0.012c0.053-0.061,0.095-0.145,0.162-0.182c0.774-0.419,1.542-0.85,2.331-1.236
		c1.303-0.637,2.522-1.388,3.521-2.457c0.063-0.067,0.108-0.152,0.161-0.229c-0.096-0.024-0.191-0.063-0.288-0.07
		c-1.473-0.114-2.759-0.614-3.848-1.661C0.904,32.179,0.203,30.474,0.042,28.508z M1.059,26.484C1.081,27.462,1.21,28.3,1.67,29.149
		c1.042,1.93,3.385,3.352,5.569,3.226c0.47-0.028,0.591-0.199,0.573-0.637c-0.059-1.517-0.526-2.924-1.347-4.155
		c-1.363-2.045-2.851-4.007-4.292-6.001c-0.009-0.012-0.143,0.024-0.157,0.062C1.398,23.22,1.111,24.864,1.059,26.484z"/>
	<path fill="#58585B" d="M74.726,30.171c0.044-2.108,0.604-3.905,1.419-5.636c0.022-0.048,0.189-0.08,0.192-0.073
		c0.099,0.188,0.554,0.049,0.408,0.463c-0.371,1.051-0.785,2.094-1.064,3.171c-0.152,0.585-0.167,1.251-0.064,1.849
		c0.201,1.177,1.514,1.829,2.792,1.479c1.587-0.433,3.114-1.021,4.506-1.901c2.437-1.544,4.645-3.336,6.146-5.87
		c0.28-0.474,0.103-0.9-0.019-1.308c-0.624-2.11-1.294-4.209-1.954-6.31c-0.339-1.081-0.768-2.141-1.004-3.242
		c-0.119-0.548,0.093-1.171,0.179-1.757c0.033-0.221,0.135-0.432,0.206-0.646c0.172,0.184,0.423,0.338,0.507,0.557
		c0.751,1.958,1.557,3.9,2.177,5.9c0.638,2.05,1.078,4.159,1.617,6.238c0.336,1.3,0.599,2.628,1.077,3.871
		c0.288,0.75,0.875,1.41,1.422,2.027c0.556,0.627,1.346,0.738,2.17,0.702c1.594-0.066,3.164-0.24,4.569-1.063
		c1.094-0.64,2.148-1.351,3.225-2.021c0.162-0.102,0.353-0.156,0.529-0.23c0.027,0.185,0.076,0.373,0.082,0.559
		c0.012,0.463-0.33,0.963,0.082,1.381c0.377,0.384,0.752,0.821,1.219,1.062c0.959,0.496,2.286,0.143,3.092-0.821
		c0.441-0.53,0.722-1.195,1.101-1.781c0.219-0.34,0.479-0.655,0.743-0.963c0.07-0.084,0.215-0.108,0.326-0.159
		c-0.002,0.146,0.021,0.295-0.012,0.433c-0.102,0.427-0.227,0.85-0.336,1.272c-0.011,0.048,0.015,0.113,0.039,0.16
		c0.574,1.032,2.43,1.375,3.33,0.602c0.088-0.076,0.135-0.302,0.088-0.411c-0.135-0.31-0.304-0.608-0.5-0.886
		c-0.391-0.556-0.061-1.772,0.248-2.197c0.058-0.075,0.359-0.093,0.4-0.037c0.232,0.336,0.5,0.681,0.605,1.061
		c0.363,1.32,0.223,2.643-0.299,3.886c-0.729,1.746-2.98,1.99-4.137,0.494c-0.656-0.851-0.672-0.859-1.188,0.046
		c-0.673,1.187-1.572,1.96-3.029,1.931c-1.689-0.032-2.871-1.295-2.738-2.986c0.006-0.067-0.004-0.135-0.005-0.203
		c-0.065,0.037-0.13,0.072-0.192,0.11c-1.361,0.853-2.682,1.784-4.098,2.533c-1.259,0.664-2.68,0.976-4.106,0.776
		c-1.829-0.252-2.985-1.447-3.612-3.113c-0.48-1.273-0.816-2.6-1.219-3.9c-0.024-0.076-0.06-0.146-0.089-0.222
		c-0.028,0.068-0.063,0.138-0.08,0.207c-0.312,1.232-0.967,2.282-1.883,3.125c-1.11,1.023-2.276,1.993-3.478,2.904
		c-0.929,0.706-1.909,1.363-2.943,1.896c-0.886,0.455-1.855,0.839-2.831,1.007c-1.977,0.341-3.272-0.744-3.508-2.753
		C74.778,30.919,74.751,30.456,74.726,30.171z"/>
	<path fill="#58585B" d="M116.451,11.324c0.037,0.49,0.078,0.979,0.115,1.47c0.053,0.696,0.1,1.393,0.158,2.089
		c0.15,1.848,0.328,3.693,0.451,5.541c0.105,1.596,0.227,3.196,0.197,4.793c-0.033,1.882-0.416,3.718-1.275,5.424
		c-0.049,0.095-0.15,0.165-0.229,0.248c-0.021-0.105-0.064-0.214-0.061-0.318c0.053-1.057,0.189-2.116,0.154-3.17
		c-0.074-2.136-0.229-4.269-0.373-6.399c-0.16-2.394-0.352-4.784-0.52-7.177c-0.1-1.43-0.162-2.863-0.281-4.292
		c-0.041-0.498-0.215-0.982-0.3-1.479c-0.034-0.185-0.034-0.397,0.024-0.572c0.219-0.643,0.465-1.274,0.709-1.908
		c0.032-0.082,0.109-0.147,0.167-0.221c0.063,0.074,0.155,0.138,0.188,0.223c0.352,0.904,0.695,1.81,1.04,2.717
		c0.267,0.702,0.515,1.415,0.808,2.107c0.154,0.365,0.41,0.688,0.568,1.051c0.045,0.1-0.067,0.374-0.16,0.401
		c-0.135,0.041-0.326-0.043-0.477-0.114c-0.289-0.138-0.564-0.304-0.846-0.458c-0.025-0.013-0.051-0.026-0.076-0.039
		c-0.006-0.014-0.014-0.027-0.02-0.041c-0.006,0.011-0.01,0.021-0.014,0.031c0.014,0.002,0.026,0.004,0.039,0.006
		C116.445,11.266,116.447,11.295,116.451,11.324z"/>
	<path fill="#58585B" d="M43.697,14.01c-0.075,0.072-0.141,0.167-0.229,0.213c-1.312,0.677-2.627,1.349-3.94,2.021
		c-0.042,0.02-0.087,0.032-0.13,0.048c0.003-0.074,0.005-0.148,0.011-0.222c0.08-1.109,0.959-1.443,1.779-1.832
		c1.067-0.507,2.133-1.015,3.203-1.514c1.627-0.762,3.247-1.536,4.886-2.271c4.45-1.997,8.906-3.98,13.363-5.961
		c2.882-1.28,5.77-2.545,8.656-3.813c0.091-0.04,0.195-0.053,0.292-0.077c-0.019,0.097-0.033,0.196-0.06,0.292
		c-0.134,0.492-0.428,0.8-0.919,1.021c-4.624,2.071-9.231,4.173-13.845,6.261c-3.279,1.483-6.561,2.956-9.837,4.441
		c-1.001,0.454-1.99,0.936-2.984,1.405c-0.058,0.026-0.12,0.042-0.18,0.063C43.74,14.059,43.719,14.034,43.697,14.01z"/>
	<path fill="#58585B" d="M96.399,11.486c-0.095,0.874-0.647,1.246-1.398,0.88c-0.488-0.238-0.994-0.499-1.378-0.868
		c-0.244-0.233-0.351-0.677-0.391-1.04c-0.04-0.37,0.004-0.789,0.148-1.127s0.47-0.596,0.702-0.899
		c0.851-1.117,2.146-1.472,3.368-1.927c4.438-1.656,8.889-3.286,13.336-4.922c0.9-0.331,1.807-0.647,2.711-0.966
		c0.057-0.02,0.123-0.005,0.186-0.007c-0.006,0.072-0.008,0.144-0.021,0.213c-0.168,0.938-0.865,1.272-1.672,1.573
		c-4.734,1.756-9.459,3.538-14.181,5.326c-0.822,0.312-1.634,0.663-2.422,1.053c-0.282,0.139-0.548,0.407-0.7,0.684
		c-0.186,0.338,0.14,0.562,0.363,0.774c0.149,0.141,0.27,0.397,0.525,0.106c0.035-0.039,0.288,0.02,0.33,0.096
		C96.091,10.773,96.238,11.134,96.399,11.486z"/>
	<path fill="#58585B" d="M166.094,10.565c0.115-1.146,1.412-3.002,2.51-3.418c3.684-1.401,7.373-2.79,11.066-4.166
		c2.244-0.835,4.498-1.639,6.75-2.453c0.112-0.042,0.234-0.057,0.352-0.084c-0.021,0.126-0.029,0.257-0.066,0.377
		c-0.207,0.646-0.556,1.072-1.268,1.334c-4.973,1.821-9.928,3.688-14.873,5.578c-1.094,0.417-2.133,0.979-3.184,1.504
		c-0.199,0.1-0.332,0.333-0.495,0.505c0.183,0.139,0.351,0.311,0.554,0.408c0.356,0.174,0.752,0.271,1.098,0.461
		c0.171,0.095,0.272,0.32,0.395,0.494c0.021,0.03,0.002,0.093,0.004,0.14c0.002,1.049-0.004,1.066-1.014,0.749
		c-0.428-0.135-0.869-0.307-1.225-0.57C166.433,11.228,166.291,10.858,166.094,10.565z"/>
	<path fill="#58585B" d="M4.19,12.959c-0.527,0.102-0.852-0.261-1.163-0.651c-0.005-0.007-0.009-0.017-0.017-0.022
		c-1.025-0.895-0.606-1.824-0.123-2.807C3.554,8.13,4.784,7.609,6.07,7.133c4.045-1.496,8.088-3.002,12.134-4.498
		c1.468-0.543,2.94-1.071,4.413-1.604c0.085-0.029,0.18-0.031,0.271-0.047c-0.011,0.087-0.009,0.18-0.032,0.263
		c-0.191,0.666-0.509,1.148-1.243,1.415c-4.214,1.528-8.414,3.1-12.61,4.683c-1.505,0.568-2.99,1.193-4.47,1.827
		C4.035,9.386,3.577,9.696,3.109,9.977c-0.233,0.142-0.199,0.545,0.07,0.595c0.834,0.153,1.152,0.967,1.794,1.365
		c0.145,0.09,0.185,0.497,0.122,0.717c-0.04,0.143-0.348,0.221-0.547,0.3C4.458,12.989,4.343,12.959,4.19,12.959z"/>
	<path fill="#58585B" d="M186.679,5.973c-0.102,1.356-0.204,2.713-0.299,4.069c-0.004,0.065,0.043,0.147,0.089,0.199
		c0.461,0.508,0.969,0.979,1.377,1.523c0.364,0.488,0.079,1.037-0.06,1.552c-0.009,0.03-0.171,0.053-0.247,0.028
		c-0.977-0.313-1.855-0.109-2.64,0.517c-0.438,0.35-0.43,0.802-0.262,1.311c0.636,1.933,1.341,3.85,1.841,5.817
		c0.474,1.861,0.482,3.774-0.201,5.626c-0.053,0.144-0.167,0.264-0.255,0.395c0.004-0.139-0.015-0.281,0.011-0.416
		c0.471-2.435,0.157-4.785-0.717-7.083c-0.431-1.134-0.904-2.258-1.221-3.424c-0.176-0.643-0.162-1.377-0.06-2.044
		c0.161-1.068,1.075-1.742,2.311-1.886c0.038-0.005,0.113-0.168,0.089-0.203c-0.314-0.473-0.934-0.521-1.367-0.128
		c-0.072,0.065-0.18,0.094-0.271,0.139c-0.024-0.116-0.105-0.261-0.065-0.343c0.204-0.402,0.441-0.787,0.663-1.181
		c0.042-0.074,0.118-0.183,0.093-0.234c-0.42-0.865-0.851-1.727-1.292-2.581c-0.013-0.024-0.218-0.002-0.235,0.038
		c-0.105,0.263-0.189,0.295-0.385,0.054c-0.213-0.265-0.498-0.47-0.718-0.729c-0.437-0.504-0.408-1.374,0.065-1.844
		c0.301-0.298,0.646-0.113,0.818,0.127c0.563,0.786,1.086,1.604,1.591,2.428c0.181,0.295,0.26,0.65,0.399,0.972
		c0.031,0.075,0.122,0.126,0.185,0.188c0.036-0.082,0.103-0.164,0.105-0.246c0.008-0.501-0.011-1.001,0-1.501
		c0.015-0.806,0.009-1.613,0.076-2.415C186.146,4.092,186.54,3.751,187,3.8c0.613,0.064,1.229,0.687,1.182,1.208
		c-0.025,0.302-0.076,0.601-0.114,0.9c-0.214-0.147-0.412-0.324-0.646-0.432c-0.217-0.103-0.506-0.231-0.695-0.16
		c-0.136,0.052-0.161,0.404-0.237,0.623C186.551,5.951,186.613,5.962,186.679,5.973z"/>
	<path fill="#58585B" d="M31.349,27.32c0.136,0.216,0.229,0.485,0.417,0.637c0.367,0.295,0.803,0.282,1.218,0.063
		c0.028-0.016,0.03-0.16-0.006-0.205c-0.18-0.228-0.25-1.146-0.087-1.402c0.004-0.007,0.096,0.021,0.114,0.052
		c0.446,0.782,0.572,1.599,0.202,2.441c-0.26,0.592-1.189,0.719-1.753,0.227c-0.335-0.291-0.499-0.316-0.642,0.16
		c-0.091,0.302-0.28,0.583-0.468,0.841c-0.401,0.548-0.908,0.66-1.574,0.202c-1.044-0.715-1.908-0.376-2.708,0.43
		c-1.087,1.094-2.115,2.249-3.192,3.354c-1.474,1.51-3.316,2.358-5.33,2.876c-0.439,0.11-0.879,0.229-1.321,0.329
		c-0.107,0.025-0.227,0.003-0.341,0.003c0.089-0.065,0.173-0.139,0.27-0.189c1.278-0.697,2.592-1.334,3.828-2.099
		c1.684-1.039,3.193-2.301,4.524-3.781c0.736-0.82,1.518-1.608,2.348-2.336c0.542-0.475,1.195-0.548,1.85-0.067
		c0.563,0.409,1.194,0.529,1.772,0.033c0.205-0.174,0.324-0.47,0.438-0.728c0.136-0.308,0.214-0.64,0.336-0.956
		c0.041-0.105,0.14-0.189,0.212-0.284c0.004,0.109,0.009,0.219,0.014,0.328C31.431,27.271,31.391,27.295,31.349,27.32z"/>
	<path fill="#58585B" d="M15.955,12.327c-0.389-1.13-0.797-2.341-1.235-3.54c-0.029-0.081-0.289-0.09-0.444-0.108
		c-0.132-0.016-0.313,0.062-0.393-0.003c-0.293-0.237-0.788-0.53-0.771-0.772c0.027-0.393,0.329-0.857,0.656-1.097
		c0.162-0.119,0.71,0.112,0.964,0.327c0.811,0.687,1.102,1.669,1.345,2.662c0.026,0.109,0.066,0.215,0.101,0.322
		c0.04-0.113,0.086-0.225,0.122-0.338c0.317-1.012,0.574-2.049,0.975-3.027c0.239-0.587,0.771-0.712,1.156-0.463
		c0.545,0.352,0.73,1.049,0.386,1.545c-0.046,0.066-0.293,0.084-0.362,0.024c-0.706-0.607-0.982-0.563-1.243,0.366
		c-0.318,1.135-0.567,2.293-0.795,3.451c-0.295,1.501-1.109,2.636-2.356,3.471c-2.125,1.425-4.487,2.354-6.875,3.222
		c-0.222,0.08-0.446,0.154-0.671,0.221c-0.073,0.022-0.156,0.011-0.235,0.016c0.054-0.06,0.098-0.136,0.164-0.174
		c0.684-0.387,1.364-0.779,2.058-1.147c2.08-1.104,4.238-2.069,6.1-3.545c0.393-0.311,0.765-0.648,1.135-0.985
		C15.809,12.688,15.833,12.567,15.955,12.327z"/>
	<path fill="#58585B" d="M179.156,21.091c-0.344,0.541-0.678,1.073-1.029,1.595c-0.021,0.03-0.204-0.017-0.291-0.067
		c-0.535-0.319-1.061-0.66-1.601-0.971c-0.065-0.037-0.248,0.021-0.298,0.091c-0.188,0.271-0.358,0.557-0.505,0.854
		c-0.144,0.288-0.291,0.292-0.548,0.121c-0.534-0.357-1.096-0.676-1.632-1.032c-0.075-0.049-0.138-0.241-0.101-0.316
		c0.229-0.467,0.475-0.928,0.746-1.371c0.053-0.083,0.288-0.146,0.373-0.102c0.564,0.308,1.11,0.653,1.67,0.966
		c0.072,0.041,0.265,0,0.309-0.065c0.172-0.259,0.327-0.533,0.455-0.818c0.128-0.276,0.277-0.347,0.547-0.177
		c0.543,0.345,1.096,0.673,1.641,1.016C178.975,20.863,179.029,20.954,179.156,21.091z"/>
	<path fill="#58585B" d="M111.037,21.215c-0.324,0.52-0.638,1.033-0.971,1.534c-0.023,0.037-0.189,0.021-0.26-0.021
		c-0.552-0.329-1.096-0.677-1.652-0.999c-0.066-0.04-0.25-0.001-0.291,0.061c-0.25,0.365-0.406,0.964-0.727,1.064
		c-0.287,0.089-0.744-0.359-1.123-0.576c-0.156-0.088-0.293-0.221-0.459-0.279c-0.604-0.213-0.549-0.563-0.246-0.995
		c0.123-0.177,0.219-0.373,0.326-0.563c0.336-0.605,0.367-0.619,0.943-0.26c0.422,0.264,0.826,0.56,1.254,0.815
		c0.072,0.044,0.283,0,0.326-0.069c0.201-0.309,0.35-0.65,0.55-0.96c0.048-0.078,0.251-0.148,0.321-0.109
		c0.613,0.34,1.213,0.701,1.809,1.067C110.912,20.971,110.947,21.08,111.037,21.215z"/>
	<path fill="#58585B" d="M14.794,38.809c-0.336,0.534-0.662,1.062-1.005,1.579c-0.02,0.029-0.191-0.007-0.268-0.052
		c-0.555-0.328-1.1-0.673-1.657-0.994c-0.055-0.032-0.217,0.019-0.259,0.08c-0.247,0.368-0.403,0.937-0.735,1.065
		c-0.25,0.097-0.719-0.358-1.085-0.577c-0.313-0.188-0.623-0.383-0.924-0.587c-0.049-0.032-0.095-0.156-0.072-0.199
		c0.24-0.456,0.478-0.917,0.76-1.35c0.066-0.102,0.344-0.179,0.447-0.124c0.55,0.295,1.072,0.642,1.614,0.951
		c0.068,0.039,0.246-0.004,0.296-0.07c0.138-0.178,0.269-0.375,0.344-0.586c0.196-0.538,0.474-0.58,0.924-0.255
		c0.439,0.318,0.926,0.571,1.389,0.86C14.634,38.595,14.681,38.679,14.794,38.809z"/>
	<path fill="#58585B" d="M144.154,38.481c0.167-0.292,0.327-0.59,0.512-0.868c0.027-0.043,0.194-0.042,0.261-0.003
		c0.564,0.327,1.116,0.677,1.684,0.996c0.069,0.042,0.263-0.005,0.307-0.074c0.187-0.292,0.321-0.623,0.518-0.91
		c0.062-0.093,0.296-0.177,0.379-0.132c0.598,0.328,1.179,0.683,1.751,1.05c0.08,0.051,0.152,0.248,0.115,0.319
		c-0.266,0.509-0.554,1.008-0.856,1.498c-0.025,0.042-0.223,0.029-0.306-0.018c-0.555-0.331-1.094-0.681-1.648-1.009
		c-0.057-0.033-0.222,0.012-0.259,0.07c-0.207,0.316-0.371,0.662-0.589,0.969c-0.059,0.084-0.295,0.139-0.381,0.088
		c-0.587-0.337-1.164-0.7-1.73-1.077c-0.066-0.046-0.045-0.222-0.064-0.334c0.127-0.066,0.297-0.104,0.37-0.209
		C144.267,38.77,144.18,38.603,144.154,38.481z"/>
	<path fill="#58585B" d="M130.652,3.448c-0.186,0.916-0.729,1.431-1.335,1.166c-0.204-0.089-0.35-0.304-0.522-0.461
		c-0.033-0.028-0.067-0.055-0.101-0.082c-0.021,0.04-0.046,0.079-0.054,0.121c-0.184,0.86-0.537,1.271-1.08,1.252
		c-0.521-0.018-0.871-0.503-0.965-1.356c-0.063-0.572-0.104-1.146-0.187-1.716c-0.021-0.131-0.167-0.306-0.288-0.338
		c-0.098-0.026-0.296,0.099-0.361,0.21c-0.368,0.634-0.713,1.282-1.063,1.929c-0.055,0.103-0.092,0.214-0.139,0.323
		c-0.02-0.145-0.089-0.305-0.051-0.43c0.122-0.389,0.257-0.778,0.439-1.14c0.266-0.521,0.547-1.042,0.886-1.516
		c0.324-0.451,0.718-0.384,0.851,0.157c0.156,0.637,0.148,1.314,0.309,1.949c0.082,0.324,0.317,0.704,0.594,0.86
		c0.381,0.215,0.902-0.217,0.818-0.707c-0.102-0.607-0.402-1.18-0.545-1.784c-0.064-0.273,0.048-0.587,0.078-0.883
		c0.131,0.084,0.338,0.139,0.383,0.256c0.178,0.455,0.266,0.949,0.465,1.394c0.154,0.347,0.397,0.668,0.66,0.942
		c0.07,0.076,0.359-0.058,0.549-0.095c-0.042-0.142-0.045-0.319-0.135-0.419c-0.622-0.689-1.026-1.43-0.672-2.39
		c0.025-0.067,0.07-0.128,0.105-0.193c0.016,0.063,0.024,0.129,0.054,0.185c0.231,0.459,0.483,0.909,0.704,1.375
		C130.266,2.515,130.453,2.983,130.652,3.448z"/>
	<path fill="#58585B" d="M193.787,4.81c0.08,1.217-0.514,2.393-0.914,3.622c-0.172,0.522-0.215,1.104-0.216,1.659
		c-0.003,0.209,0.249,0.546,0.44,0.593c0.188,0.046,0.456-0.193,0.675-0.329c0.08-0.052,0.118-0.168,0.182-0.251
		c0.08-0.106,0.164-0.209,0.248-0.313c-0.021,0.138-0.017,0.281-0.059,0.41c-0.142,0.41-0.272,0.826-0.455,1.218
		c-0.172,0.363-0.513,0.623-0.896,0.467c-0.26-0.107-0.525-0.419-0.612-0.692c-0.262-0.851-0.096-1.704,0.164-2.537
		c0.266-0.848,0.613-1.679,0.785-2.545c0.346-1.726-0.359-3.129-1.533-4.341c-0.32-0.328-0.246-1.043,0.164-1.266
		c0.077-0.041,0.284,0.088,0.391,0.184C193.336,1.753,193.811,3.116,193.787,4.81z"/>
	<path fill="#58585B" d="M83.375,17.765c0.038,1.216-0.421,2.308-0.804,3.431c-0.215,0.634-0.273,1.331-0.317,2.007
		c-0.011,0.185,0.253,0.501,0.447,0.553c0.172,0.045,0.424-0.182,0.634-0.303c0.059-0.035,0.093-0.116,0.137-0.178
		c0.099-0.143,0.197-0.286,0.295-0.43c-0.024,0.189-0.012,0.392-0.076,0.564c-0.159,0.422-0.29,0.875-0.545,1.235
		c-0.417,0.586-1.131,0.443-1.355-0.244c-0.359-1.104-0.027-2.148,0.293-3.196c0.253-0.838,0.558-1.674,0.68-2.534
		c0.184-1.295-0.368-2.402-1.172-3.389c-0.188-0.232-0.444-0.42-0.587-0.675c-0.075-0.134-0.012-0.387,0.062-0.554
		c0.263-0.603,0.404-0.608,0.857-0.121C82.924,15.016,83.41,16.29,83.375,17.765z"/>
	<path fill="#58585B" d="M26.913,4.934c0.06,1.274-0.544,2.475-0.959,3.729c-0.16,0.484-0.182,1.031-0.179,1.55
		c0.001,0.204,0.208,0.533,0.379,0.577c0.2,0.05,0.466-0.143,0.696-0.245c0.062-0.027,0.101-0.111,0.145-0.173
		c0.099-0.143,0.196-0.288,0.295-0.434c-0.025,0.189-0.007,0.4-0.083,0.567c-0.213,0.462-0.389,0.973-0.72,1.341
		c-0.356,0.397-0.941,0.18-1.121-0.341c-0.355-1.034-0.1-2.03,0.192-3.029c0.281-0.959,0.651-1.914,0.761-2.895
		c0.162-1.465-0.585-2.641-1.569-3.667c-0.339-0.354-0.283-1.043,0.138-1.297c0.062-0.037,0.24,0.057,0.327,0.132
		c1.127,0.979,1.628,2.25,1.695,3.716C26.918,4.589,26.913,4.712,26.913,4.934z"/>
	<path fill="#58585B" d="M135.496,10.254c0.292-0.95,0.529-1.919,0.879-2.847c0.709-1.876,0.459-3.563-0.838-5.093
		c-0.172-0.204-0.346-0.41-0.544-0.587c-0.288-0.255-0.025-0.448,0.044-0.667c0.186-0.567,0.449-0.472,0.793-0.124
		c1.219,1.229,1.708,2.751,1.456,4.405c-0.193,1.276-0.724,2.499-1.046,3.76c-0.103,0.41-0.105,0.884-0.012,1.297
		c0.121,0.546,0.573,0.628,0.971,0.238c0.113-0.111,0.203-0.248,0.298-0.377c0.075-0.104,0.144-0.214,0.216-0.321
		c-0.015,0.135-0.004,0.278-0.048,0.401c-0.163,0.438-0.29,0.905-0.542,1.288c-0.135,0.206-0.515,0.392-0.748,0.354
		c-0.232-0.036-0.5-0.33-0.6-0.574c-0.139-0.337-0.137-0.732-0.193-1.103C135.553,10.288,135.525,10.271,135.496,10.254z"/>
	<path fill="#58585B" d="M58.227,1.086c0.581,0.071,1.164,0.127,1.742,0.217c0.454,0.071,0.709,0.314,0.372,0.753
		c-0.528,0.687-0.984,1.521-1.679,1.958c-0.823,0.517-1.868,0.679-2.816,0.994c-0.022,0.006-0.051-0.007-0.075-0.009
		c0.028-0.035,0.048-0.083,0.085-0.104c0.619-0.359,1.241-0.714,1.861-1.072c0.368-0.214,0.736-0.427,1.1-0.647
		c0.058-0.034,0.143-0.126,0.131-0.153c-0.031-0.065-0.104-0.145-0.171-0.157c-0.351-0.068-0.705-0.142-1.062-0.169
		c-0.478-0.04-0.981,0.042-1.427-0.089C56.03,2.529,55.894,2.234,55.9,2.745c-0.072-0.003-0.146-0.005-0.218-0.008
		c0.004-0.058-0.002-0.119,0.016-0.173C56.102,1.317,56.986,0.914,58.227,1.086z"/>
	<path fill="#58585B" d="M78.991,13.056c-0.138,0.396-0.192,0.668-0.319,0.9c-0.34,0.628-1.023,0.647-1.442,0.06
		c-0.048-0.069-0.105-0.13-0.159-0.194c-0.026,0.085-0.055,0.167-0.079,0.253c-0.025,0.091-0.04,0.186-0.069,0.275
		c-0.187,0.558-0.592,0.908-1.041,0.844c-0.555-0.079-0.795-0.5-0.87-0.993c-0.106-0.698-0.151-1.406-0.233-2.109
		c-0.011-0.092-0.073-0.227-0.146-0.255c-0.569-0.221-0.076-0.598-0.141-0.888c0.148,0.062,0.401,0.093,0.428,0.189
		c0.148,0.54,0.244,1.094,0.351,1.645c0.049,0.259,0.062,0.527,0.132,0.779c0.117,0.424,0.42,0.751,0.843,0.563
		c0.256-0.113,0.558-0.562,0.521-0.81c-0.086-0.57-0.405-1.103-0.551-1.669c-0.072-0.275,0.029-0.595,0.052-0.895
		c0.137,0.069,0.356,0.106,0.4,0.215c0.173,0.417,0.276,0.862,0.435,1.286c0.117,0.313,0.245,0.636,0.438,0.904
		c0.099,0.139,0.345,0.2,0.535,0.232c0.092,0.015,0.239-0.104,0.303-0.201c0.032-0.05-0.041-0.197-0.099-0.277
		c-0.365-0.527-0.931-0.953-0.871-1.693c0.021-0.271,0.091-0.538,0.147-0.805c0.013-0.056,0.066-0.102,0.101-0.151
		c0.023,0.049,0.045,0.098,0.068,0.148c0.203,0.429,0.404,0.859,0.609,1.287C78.561,12.17,78.789,12.64,78.991,13.056z"/>
	<path fill="#58585B" d="M56.741,39.338c0.705-0.168,1.409-0.339,2.114-0.507c0.07-0.015,0.144-0.021,0.217-0.032
		c-0.035,0.062-0.06,0.132-0.105,0.186c-0.717,0.828-1.637,1.203-2.718,1.182c-0.692-0.012-1.171-0.617-0.991-1.386
		c0.173-0.733,0.495-1.436,0.741-2.154c0.024-0.069,0.002-0.211-0.048-0.241c-0.567-0.354-0.794-0.735-0.524-1.322
		c0.282-0.613,0.73-1.152,1.136-1.703c0.081-0.108,0.388-0.2,0.437-0.151c0.132,0.138,0.267,0.366,0.244,0.535
		c-0.034,0.239-0.208,0.458-0.328,0.681c-0.005,0.008-0.083-0.021-0.125-0.037c-0.148-0.063-0.295-0.127-0.443-0.192
		c-0.116,0.272-0.39,0.596-0.317,0.803c0.158,0.454,0.764,0.518,1.13,0.185c0.237-0.215,0.448-0.462,0.671-0.694
		c0.032-0.033,0.069-0.06,0.104-0.089c0.021,0.051,0.069,0.114,0.055,0.152c-0.173,0.433-0.293,0.905-0.549,1.287
		c-0.53,0.787-1.187,1.489-1.691,2.293C55.313,38.821,55.714,39.25,56.741,39.338z"/>
	<path fill="#58585B" d="M164.005,5.819c0.183-1.193,0.563-2.455,1.196-3.632c0.131-0.246,0.295-0.479,0.475-0.693
		c0.05-0.058,0.205-0.027,0.313-0.038c-0.006,0.097,0.015,0.202-0.021,0.289c-0.141,0.351-0.452,0.721-0.401,1.034
		c0.048,0.29,0.479,0.518,0.745,0.77c0.75,0.716,0.629,1.57,0.355,2.428c-0.178,0.556-1.012,1.031-1.705,1.032
		C164.312,7.009,163.998,6.662,164.005,5.819z M164.924,5.892c0.49-0.253,0.898-0.458,1.299-0.677
		c0.035-0.019,0.054-0.162,0.029-0.179c-0.395-0.271-0.795-0.532-1.195-0.795c-0.147,0.37-0.297,0.74-0.445,1.11
		c-0.004,0.008-0.004,0.021,0,0.027C164.702,5.528,164.793,5.677,164.924,5.892z"/>
	<path fill="#58585B" d="M51.126,0.919c-0.114,0.344-0.17,0.564-0.27,0.767c-0.02,0.041-0.242,0.05-0.293-0.003
		c-0.567-0.584-0.832-0.548-1.063,0.245c-0.274,0.943-0.478,1.909-0.711,2.865c-0.015,0.063-0.027,0.138-0.067,0.186
		c-0.092,0.112-0.202,0.212-0.304,0.316c-0.044-0.123-0.09-0.245-0.132-0.37c-0.261-0.788-0.505-1.582-0.793-2.361
		c-0.083-0.225-0.222-0.495-0.591-0.211c-0.099,0.076-0.476-0.107-0.646-0.259c-0.152-0.135-0.209-0.387-0.276-0.598
		c-0.021-0.069,0.059-0.174,0.097-0.26c0.357-0.783,0.659-0.855,1.379-0.237c0.682,0.585,0.896,1.449,1.05,2.311
		c0.02,0.107,0.068,0.209,0.104,0.312c0.027-0.089,0.057-0.179,0.078-0.27c0.158-0.663,0.292-1.334,0.481-1.987
		c0.089-0.311,0.234-0.64,0.453-0.866c0.181-0.188,0.58-0.395,0.752-0.313C50.687,0.332,50.903,0.686,51.126,0.919z"/>
	<path fill="#58585B" d="M91.892,2c-0.121,0.352-0.185,0.57-0.281,0.773c-0.015,0.033-0.191,0.028-0.264-0.012
		c-0.219-0.119-0.504-0.423-0.616-0.366c-0.211,0.108-0.388,0.399-0.458,0.648c-0.252,0.9-0.452,1.815-0.674,2.726
		c-0.017,0.073-0.025,0.157-0.066,0.214c-0.104,0.141-0.226,0.269-0.337,0.4c-0.052-0.14-0.107-0.28-0.156-0.42
		c-0.272-0.793-0.532-1.59-0.822-2.375c-0.091-0.25-0.236-0.366-0.542-0.146c-0.107,0.076-0.481-0.105-0.647-0.261
		c-0.153-0.146-0.195-0.411-0.277-0.627c-0.009-0.024,0.031-0.066,0.041-0.104c0.393-1.119,1.067-0.908,1.57-0.198
		c0.451,0.64,0.625,1.474,0.923,2.221c0.034,0.083,0.074,0.163,0.111,0.245c0.021-0.08,0.045-0.16,0.064-0.24
		c0.155-0.673,0.284-1.354,0.475-2.017c0.092-0.319,0.248-0.653,0.472-0.891c0.169-0.183,0.564-0.374,0.729-0.294
		C91.449,1.429,91.669,1.772,91.892,2z"/>
	<path fill="#58585B" d="M100.477,17.838c-0.121,0.345-0.188,0.572-0.287,0.784c-0.012,0.028-0.219,0.024-0.272-0.029
		c-0.571-0.58-0.812-0.555-1.052,0.231c-0.283,0.931-0.48,1.888-0.718,2.833c-0.016,0.063-0.021,0.14-0.06,0.188
		c-0.101,0.13-0.219,0.244-0.33,0.368c-0.04-0.139-0.073-0.277-0.121-0.412c-0.291-0.827-0.579-1.656-0.896-2.473
		c-0.028-0.069-0.268-0.055-0.408-0.082c-0.204-0.041-0.465-0.021-0.599-0.143c-0.188-0.17-0.289-0.441-0.407-0.679
		c-0.021-0.046,0.039-0.145,0.082-0.205c0.166-0.234,0.375-0.676,0.501-0.654c0.361,0.061,0.751,0.248,1.018,0.503
		c0.624,0.597,0.793,1.42,0.932,2.24c0.015,0.081,0.055,0.158,0.082,0.237c0.032-0.082,0.075-0.159,0.093-0.244
		c0.157-0.662,0.286-1.333,0.471-1.988c0.088-0.312,0.227-0.646,0.444-0.872c0.187-0.197,0.59-0.423,0.766-0.344
		C100.031,17.238,100.248,17.599,100.477,17.838z"/>
	<path fill="#58585B" d="M109.086,10.382c-0.705-0.001-1.078-0.448-0.947-1.227c0.24-1.438,0.729-2.793,1.461-4.058
		c0.055-0.094,0.143-0.182,0.236-0.236c0.068-0.04,0.174-0.02,0.262-0.026c0.003,0.081,0.025,0.17-0.002,0.239
		c-0.123,0.316-0.281,0.621-0.381,0.945c-0.033,0.108,0.023,0.315,0.111,0.382c1.129,0.844,1.361,1.472,1.025,2.835
		C110.703,9.838,109.865,10.382,109.086,10.382z M108.658,8.735c0.016,0.361,0.211,0.534,0.506,0.446
		c0.41-0.121,0.797-0.322,1.178-0.52c0.055-0.027,0.072-0.291,0.018-0.333c-0.342-0.263-0.705-0.499-1.07-0.729
		c-0.045-0.027-0.193,0.018-0.213,0.064C108.927,8.016,108.795,8.377,108.658,8.735z"/>
	<path fill="#58585B" d="M57.525,14.867c0.387-1.12,0.76-2.246,1.168-3.358c0.122-0.334,0.32-0.647,0.524-0.94
		c0.071-0.1,0.271-0.107,0.412-0.157c-0.013,0.121,0,0.252-0.041,0.361c-0.128,0.336-0.43,0.691-0.375,0.986
		c0.051,0.275,0.468,0.485,0.729,0.717c0.776,0.685,0.692,1.538,0.408,2.382c-0.237,0.709-0.863,0.999-1.562,1.099
		c-0.726,0.103-1.116-0.275-1.115-1.037C57.625,14.901,57.575,14.885,57.525,14.867z M58.717,14.869
		c0.386-0.185,0.776-0.363,1.157-0.557c0.286-0.146,0.228-0.333,0.016-0.496c-0.312-0.238-0.625-0.477-0.958-0.679
		c-0.075-0.045-0.322,0.03-0.354,0.109c-0.144,0.344-0.261,0.703-0.345,1.065C58.153,14.655,58.347,14.802,58.717,14.869z"/>
	<path fill="#58585B" d="M129.974,11.799c-0.265-0.767-0.514-1.538-0.796-2.3c-0.1-0.271-0.258-0.418-0.609-0.207
		c-0.122,0.075-0.475-0.121-0.652-0.274c-0.135-0.116-0.25-0.379-0.217-0.543c0.059-0.272,0.184-0.63,0.394-0.742
		c0.212-0.115,0.624-0.074,0.837,0.067c0.724,0.479,0.979,1.266,1.183,2.063c0.062,0.241,0.124,0.483,0.189,0.725
		c0.06-0.239,0.126-0.479,0.185-0.719c0.119-0.496,0.199-1.006,0.362-1.487c0.12-0.358,0.29-0.73,0.54-1.002
		c0.156-0.168,0.558-0.286,0.754-0.203c0.385,0.163,0.654,0.511,0.574,0.999c-0.009,0.055-0.041,0.106-0.061,0.16
		c-0.192,0.557-0.195,0.557-0.582,0.115c-0.292-0.334-0.59-0.324-0.727,0.093c-0.262,0.797-0.447,1.618-0.667,2.429
		c-0.091,0.327-0.189,0.651-0.284,0.977C130.256,11.898,130.113,11.849,129.974,11.799z"/>
	<path fill="#58585B" d="M146.852,26.029c-0.732,0.014-1.4-0.703-1.447-1.27c-0.111-1.311,0.631-1.709,1.52-1.776
		c0.66-0.049,1.467,0.741,1.48,1.395C148.426,25.275,147.721,26.022,146.852,26.029z"/>
	<path fill="#58585B" d="M133.324,17.314c-0.076,0.523-0.559,1.261-0.981,1.42c-0.63,0.236-1.317,0.1-1.698-0.389
		c-0.141-0.181-0.183-0.438-0.271-0.659c-0.046-0.118-0.113-0.232-0.139-0.354c-0.017-0.091-0.013-0.219,0.039-0.281
		c0.049-0.059,0.174-0.057,0.268-0.073c0.051-0.009,0.148,0.009,0.151-0.004c0.021-0.074,0.019-0.155,0.025-0.234
		c-0.04-0.001-0.08-0.003-0.12-0.005c-0.077-0.004-0.156-0.008-0.232-0.012c0.046-0.048,0.092-0.095,0.137-0.145
		c0.193-0.214,0.363-0.459,0.587-0.64c0.405-0.33,1.552-0.063,1.806,0.412C133.059,16.66,133.182,16.993,133.324,17.314z"/>
	<path fill="#58585B" d="M195.881,35.624c-0.268,0.281-0.385,0.484-0.56,0.579c-2.751,1.447-5.508,2.88-8.267,4.316
		c-0.064,0.035-0.136,0.052-0.207,0.08c-0.001-0.073-0.001-0.146-0.008-0.219c-0.03-0.398,0.167-0.617,0.518-0.798
		c2.713-1.394,5.416-2.811,8.129-4.207C195.537,35.351,195.668,35.488,195.881,35.624z"/>
	<path fill="#58585B" d="M143.873,36.053c-0.164,0.165-0.301,0.387-0.499,0.492c-2.716,1.431-5.438,2.848-8.161,4.263
		c-0.085,0.046-0.186,0.069-0.277,0.102c0.007-0.091,0.023-0.186,0.016-0.277c-0.025-0.313,0.094-0.507,0.392-0.659
		c2.718-1.404,5.429-2.825,8.144-4.235C143.775,35.587,143.783,35.602,143.873,36.053z"/>
	<path fill="#58585B" d="M106.84,35.981c-0.182,0.197-0.33,0.463-0.555,0.583c-2.721,1.44-5.453,2.858-8.185,4.283
		c-0.062,0.031-0.135,0.04-0.202,0.062c0.004-0.064,0.019-0.131,0.008-0.193c-0.069-0.434,0.172-0.633,0.526-0.816
		c2.696-1.385,5.384-2.786,8.077-4.18c0.059-0.029,0.153,0.009,0.23,0.014C106.773,35.816,106.807,35.9,106.84,35.981z"/>
	<path fill="#58585B" d="M182.676,36.032c-0.25,0.631-0.444,1.294-0.764,1.892c-0.606,1.142-1.521,2.021-2.611,2.716
		c-0.064,0.041-0.146,0.055-0.221,0.08c0.035-0.069,0.061-0.152,0.111-0.212c0.648-0.791,1.309-1.57,1.947-2.369
		c0.156-0.196,0.318-0.438,0.349-0.674c0.034-0.293,0.041-0.726-0.134-0.874c-0.193-0.165-0.603-0.11-0.918-0.092
		c-0.182,0.011-0.358,0.139-0.537,0.214c0.027-0.219,0.023-0.447,0.092-0.651c0.094-0.274,0.211-0.552,0.378-0.787
		c0.341-0.488,1.01-0.697,1.544-0.489C182.45,34.996,182.535,35.475,182.676,36.032z"/>
	<path fill="#58585B" d="M134.046,36.287c-0.046,0.905-0.638,1.878-1.4,2.728c-0.546,0.606-1.224,1.093-1.847,1.628
		c-0.056,0.047-0.146,0.052-0.22,0.077c0.038-0.072,0.065-0.152,0.116-0.215c0.671-0.817,1.35-1.629,2.01-2.457
		c0.145-0.179,0.287-0.413,0.302-0.632c0.018-0.295,0.005-0.71-0.172-0.866c-0.181-0.156-0.585-0.085-0.886-0.059
		c-0.192,0.016-0.377,0.134-0.564,0.205c0.037-0.209,0.057-0.424,0.116-0.627c0.265-0.93,0.74-1.346,1.51-1.343
		C133.707,34.728,134.046,35.14,134.046,36.287z"/>
	<path fill="#58585B" d="M52.307,20.467c-0.69-0.022-1-0.344-1.128-0.834c-0.323-1.243-0.146-2.475,0.244-3.657
		c0.316-0.956,0.782-1.863,1.188-2.789c0.038-0.087,0.128-0.151,0.193-0.226c-0.018,0.1-0.026,0.203-0.053,0.302
		c-0.319,1.206-0.673,2.404-0.945,3.622c-0.105,0.472-0.053,0.987-0.026,1.479c0.025,0.446,0.753,0.751,1.071,0.438
		c0.296-0.293,0.509-0.67,0.761-1.01c0.03-0.04,0.077-0.068,0.116-0.104c0.001,0.036,0.008,0.076,0.001,0.112
		c-0.152,0.827-0.286,1.668-0.884,2.317C52.679,20.299,52.421,20.395,52.307,20.467z"/>
	<path fill="#58585B" d="M74.726,6.044c0.048-1.953,0.731-3.694,1.665-5.359c0.029-0.054,0.087-0.092,0.132-0.138
		c-0.005,0.062-0.001,0.124-0.018,0.183c-0.32,1.197-0.693,2.385-0.942,3.597c-0.11,0.541-0.05,1.152,0.078,1.697
		c0.135,0.569,0.693,0.663,1.095,0.231c0.228-0.247,0.389-0.558,0.583-0.838c0.035-0.049,0.08-0.091,0.12-0.136
		c0.007,0.053,0.036,0.112,0.021,0.157c-0.233,0.696-0.408,1.424-0.742,2.067c-0.139,0.267-0.616,0.462-0.957,0.492
		c-0.468,0.041-0.739-0.354-0.848-0.782C74.815,6.834,74.785,6.434,74.726,6.044z"/>
	<path fill="#58585B" d="M37.211,5.834c0.105-1.894,0.751-3.596,1.675-5.211c0.029-0.053,0.089-0.087,0.135-0.13
		c-0.011,0.064-0.015,0.13-0.031,0.192c-0.318,1.188-0.682,2.365-0.935,3.566c-0.109,0.518-0.038,1.09,0.045,1.624
		c0.033,0.209,0.293,0.496,0.493,0.536c0.207,0.041,0.519-0.119,0.689-0.287c0.229-0.227,0.366-0.547,0.547-0.825
		c0.021-0.033,0.063-0.056,0.097-0.083c0.011,0.033,0.035,0.068,0.029,0.098c-0.161,0.867-0.29,1.763-0.961,2.411
		c-0.533,0.515-1.372,0.233-1.578-0.523C37.294,6.76,37.275,6.291,37.211,5.834z"/>
	<path fill="#58585B" d="M23.007,40.588c-0.084-0.513,0.104-0.714,0.439-0.889c1.887-0.987,3.756-2.009,5.641-3
		c0.811-0.427,1.645-0.81,2.473-1.199c0.042-0.02,0.2,0.08,0.199,0.12c-0.012,0.273,0.089,0.514-0.395,0.63
		c-0.591,0.139-1.108,0.577-1.664,0.875c-2.184,1.17-4.37,2.336-6.56,3.497C23.097,40.646,23.009,40.588,23.007,40.588z"/>
	<path fill="#58585B" d="M143.732,6.257c0.006-2.119,0.662-3.883,1.633-5.552c0.028-0.049,0.083-0.084,0.123-0.124
		c-0.008,0.055-0.012,0.109-0.025,0.163c-0.334,1.309-0.712,2.609-0.981,3.931c-0.093,0.452,0.046,0.97,0.157,1.438
		c0.099,0.41,0.639,0.55,0.937,0.248c0.284-0.291,0.497-0.654,0.744-0.985c0.021-0.029,0.047-0.055,0.069-0.082
		c0.008,0.019,0.025,0.041,0.021,0.058c-0.168,0.61-0.305,1.231-0.52,1.826c-0.18,0.504-0.52,0.893-1.131,0.854
		c-0.489-0.031-0.839-0.43-0.955-1.086C143.756,6.668,143.745,6.383,143.732,6.257z"/>
	<path fill="#58585B" d="M119.369,6.111c0.03-1.988,0.693-3.77,1.658-5.461c0.031-0.053,0.082-0.095,0.125-0.142
		c-0.007,0.08-0.004,0.164-0.023,0.24c-0.318,1.216-0.678,2.422-0.938,3.65c-0.102,0.479-0.051,1.022,0.059,1.509
		c0.143,0.63,0.76,0.741,1.182,0.252c0.189-0.221,0.33-0.482,0.498-0.722c0.043-0.059,0.104-0.103,0.156-0.153
		c0,0.065,0.02,0.137-0.002,0.195c-0.26,0.688-0.498,1.385-0.797,2.055c-0.182,0.406-0.613,0.545-0.982,0.38
		c-0.293-0.131-0.563-0.439-0.711-0.736C119.438,6.863,119.438,6.471,119.369,6.111z"/>
	<path fill="#58585B" d="M155.031,4.963c-0.156,0.616-0.307,1.234-0.477,1.848c-0.021,0.073-0.143,0.119-0.219,0.178
		c-0.016-0.087-0.06-0.181-0.043-0.261c0.451-2.025-0.445-3.527-1.864-4.826c-0.331-0.304-0.267-1.067,0.138-1.312
		c0.052-0.032,0.183,0.008,0.245,0.058C154.205,1.734,154.93,3.155,155.031,4.963z"/>
	<path fill="#58585B" d="M70.844,23.451c-0.151,0.609-0.295,1.219-0.459,1.824c-0.024,0.083-0.148,0.142-0.224,0.215
		c-0.016-0.096-0.064-0.196-0.044-0.284c0.436-2.013-0.461-3.507-1.872-4.798c-0.339-0.31-0.268-1.096,0.142-1.32
		c0.052-0.027,0.168,0.008,0.224,0.052C70.013,20.223,70.739,21.645,70.844,23.451z"/>
	<path fill="#58585B" d="M176.139,16.909c-0.315,0.546-0.635,1.107-0.968,1.659c-0.019,0.029-0.172,0.013-0.23-0.027
		c-0.563-0.387-1.122-0.777-1.669-1.187c-0.069-0.053-0.115-0.242-0.078-0.326c0.224-0.492,0.465-0.975,0.721-1.449
		c0.039-0.073,0.23-0.15,0.283-0.118c0.578,0.359,1.145,0.736,1.71,1.119C175.983,16.631,176.021,16.738,176.139,16.909z"/>
	<path fill="#58585B" d="M108.033,16.934c-0.299,0.525-0.611,1.08-0.938,1.626c-0.02,0.033-0.174,0.03-0.229-0.007
		c-0.561-0.388-1.119-0.779-1.664-1.189c-0.074-0.056-0.127-0.244-0.09-0.326c0.227-0.501,0.475-0.991,0.73-1.477
		c0.033-0.062,0.182-0.129,0.223-0.104c0.602,0.373,1.195,0.758,1.783,1.149C107.917,16.65,107.938,16.759,108.033,16.934z"/>
	<path fill="#58585B" d="M47.498,16.869c-0.331,0.578-0.653,1.147-0.989,1.709c-0.015,0.025-0.168,0.002-0.229-0.04
		c-0.549-0.382-1.1-0.765-1.633-1.171c-0.078-0.061-0.125-0.272-0.081-0.364c0.206-0.439,0.396-0.868,0.873-1.142
		c0.393-0.226,0.354-0.303,0.934,0.074c0.277,0.18,0.546,0.375,0.809,0.575C47.279,16.587,47.35,16.698,47.498,16.869z"/>
	<path fill="#58585B" d="M72.772,13.785c0.409-0.789,0.859-1.657,1.313-2.522c0.012-0.022,0.078-0.018,0.119-0.025
		c-0.01,0.235,0.052,0.506-0.043,0.701c-0.335,0.692-0.724,1.358-1.091,2.035c-0.053,0.098-0.093,0.201-0.141,0.303
		C72.891,14.156,72.853,14.036,72.772,13.785z"/>
	<path fill="#58585B" d="M129.974,11.799c0.14,0.05,0.282,0.1,0.423,0.15l0.002,0.001c-0.017,0.027-0.034,0.055-0.055,0.082
		c-0.088,0.07-0.177,0.14-0.268,0.21C130.041,12.095,130.007,11.946,129.974,11.799z"/>
	<path fill="#58585B" d="M144.154,38.481c0.025,0.121,0.112,0.288,0.062,0.356c-0.073,0.105-0.243,0.143-0.37,0.209
		C143.947,38.857,144.052,38.67,144.154,38.481z"/>
	<path fill="#58585B" d="M130.344,12.032c0.021-0.027,0.038-0.055,0.055-0.082C130.382,11.978,130.364,12.005,130.344,12.032z"/>
	<path fill="#58585B" d="M116.441,11.236c-0.013-0.002-0.025-0.004-0.039-0.006c0.004-0.011,0.008-0.021,0.014-0.031
		c0.006,0.014,0.014,0.027,0.02,0.041L116.441,11.236z"/>
	<path fill="#58585B" d="M116.451,11.324c-0.004-0.029-0.006-0.059-0.01-0.088l-0.006,0.004c0.025,0.013,0.051,0.026,0.076,0.039
		C116.49,11.295,116.471,11.31,116.451,11.324z"/>
</g>
</svg>
